<svg width="350" height="350" viewBox="0 0 350 350" fill="none" xmlns="http://www.w3.org/2000/svg">
<path d="M176.894 341.606C131.887 341.606 89.5734 324.079 57.7486 292.254C25.9224 260.428 8.39581 218.114 8.39581 173.107C8.39581 128.1 25.6508 86.4696 56.9814 54.7344L58.1364 55.8754C27.1082 87.304 10.0198 128.939 10.0198 173.107C10.0198 217.276 27.3784 259.587 58.8966 291.105C90.4148 322.623 132.321 339.982 176.896 339.982C199.717 339.982 221.833 335.458 242.628 326.536C262.716 317.918 280.696 305.599 296.066 289.92L297.226 291.056C281.705 306.887 263.551 319.326 243.268 328.027C222.268 337.036 199.937 341.604 176.894 341.604V341.606Z" fill="white"/>
<path d="M55.2972 53.3176C56.4732 52.1108 58.4052 52.0842 59.612 53.2602C60.8188 54.4362 60.8454 56.3682 59.6694 57.575C58.4934 58.7818 56.5614 58.8084 55.3546 57.6324C54.1478 56.4564 54.1212 54.5244 55.2972 53.3176Z" fill="white"/>
<path d="M298.669 292.716C299.858 291.522 299.853 289.589 298.659 288.4C297.465 287.211 295.532 287.216 294.343 288.411C293.154 289.605 293.159 291.539 294.354 292.727C295.548 293.916 297.482 293.912 298.67 292.718L298.669 292.716Z" fill="white"/>
<path d="M306.781 276.455L306.352 276.125C307.013 275.269 307.667 274.408 308.311 273.542L308.745 273.864C308.098 274.735 307.443 275.598 306.779 276.455H306.781ZM310.661 271.235L310.22 270.921C310.848 270.042 311.466 269.156 312.077 268.262L312.523 268.568C311.912 269.462 311.29 270.351 310.661 271.235ZM314.334 265.866L313.881 265.569C314.474 264.666 315.059 263.756 315.633 262.84L316.092 263.127C315.515 264.046 314.929 264.958 314.334 265.866ZM317.796 260.357L317.332 260.078C317.888 259.151 318.437 258.22 318.976 257.282L319.445 257.551C318.905 258.492 318.354 259.427 317.796 260.355V260.357ZM321.038 254.716L320.564 254.456C321.084 253.508 321.595 252.554 322.098 251.597L322.577 251.849C322.073 252.811 321.56 253.765 321.038 254.716ZM324.058 248.952L323.574 248.71C324.057 247.744 324.53 246.771 324.995 245.794L325.483 246.026C325.017 247.008 324.542 247.982 324.058 248.952ZM326.85 243.074L326.355 242.851C326.801 241.865 327.235 240.876 327.66 239.88L328.159 240.093C327.732 241.091 327.296 242.085 326.85 243.074ZM329.409 237.087L328.906 236.884C329.311 235.882 329.707 234.875 330.093 233.864L330.599 234.056C330.212 235.071 329.815 236.081 329.409 237.086V237.087ZM331.73 231.006L331.22 230.822C331.586 229.804 331.941 228.784 332.287 227.758L332.8 227.93C332.452 228.96 332.097 229.984 331.73 231.004V231.006ZM333.809 224.836L333.294 224.673C333.619 223.643 333.934 222.608 334.239 221.57L334.758 221.722C334.452 222.765 334.137 223.804 333.81 224.837L333.809 224.836ZM335.643 218.589L335.121 218.446C335.405 217.405 335.679 216.357 335.943 215.306L336.468 215.438C336.203 216.492 335.929 217.542 335.643 218.588V218.589ZM337.229 212.272L336.701 212.15C336.944 211.096 337.177 210.041 337.4 208.979L337.929 209.09C337.705 210.154 337.473 211.214 337.229 212.271V212.272ZM338.566 205.897L338.034 205.796C338.234 204.733 338.426 203.668 338.607 202.6L339.14 202.689C338.96 203.762 338.768 204.83 338.566 205.895V205.897ZM339.651 199.473L339.116 199.394C339.276 198.324 339.424 197.252 339.563 196.176L340.099 196.245C339.959 197.324 339.811 198.4 339.651 199.472V199.473ZM340.484 193.011L339.947 192.952C340.064 191.877 340.171 190.8 340.267 189.72L340.806 189.769C340.71 190.852 340.602 191.933 340.486 193.011H340.484ZM341.064 186.519L340.523 186.483C340.599 185.405 340.663 184.323 340.718 183.239L341.258 183.267C341.204 184.353 341.139 185.438 341.064 186.521V186.519ZM341.39 180.009L340.85 179.992C340.883 178.913 340.906 177.829 340.918 176.743L341.459 176.75C341.446 177.839 341.424 178.926 341.39 180.009ZM340.924 173.495C340.915 172.413 340.896 171.333 340.868 170.257L341.408 170.241C341.438 171.322 341.456 172.404 341.464 173.489L340.924 173.494V173.495ZM340.75 167.019C340.7 165.936 340.64 164.858 340.568 163.782L341.109 163.747C341.18 164.826 341.24 165.908 341.291 166.993L340.75 167.019ZM340.325 160.551C340.232 159.471 340.13 158.396 340.018 157.325L340.556 157.269C340.669 158.344 340.771 159.424 340.864 160.506L340.325 160.552V160.551ZM339.65 154.105C339.515 153.031 339.371 151.96 339.217 150.893L339.753 150.816C339.907 151.887 340.053 152.961 340.187 154.038L339.651 154.105H339.65ZM338.723 147.692C338.547 146.623 338.36 145.559 338.164 144.5L338.696 144.402C338.892 145.466 339.08 146.534 339.256 147.603L338.723 147.692ZM337.544 141.317C337.326 140.258 337.099 139.202 336.862 138.149L337.39 138.03C337.628 139.086 337.856 140.146 338.075 141.208L337.544 141.317ZM336.118 134.995C335.859 133.945 335.59 132.899 335.31 131.856L335.833 131.716C336.113 132.762 336.384 133.812 336.643 134.865L336.118 134.994V134.995ZM334.443 128.734C334.144 127.695 333.833 126.661 333.514 125.629L334.03 125.469C334.351 126.503 334.662 127.541 334.963 128.584L334.443 128.734ZM332.522 122.545C332.182 121.519 331.831 120.497 331.471 119.479L331.982 119.298C332.343 120.319 332.695 121.344 333.036 122.374L332.522 122.545ZM330.361 116.435C329.979 115.423 329.589 114.415 329.189 113.413L329.692 113.212C330.092 114.218 330.484 115.228 330.866 116.243L330.359 116.434L330.361 116.435ZM327.963 110.426C327.544 109.434 327.116 108.447 326.679 107.464L327.173 107.244C327.611 108.23 328.041 109.221 328.461 110.216L327.963 110.426ZM325.336 104.527C324.88 103.551 324.412 102.581 323.936 101.615L324.421 101.375C324.898 102.344 325.367 103.317 325.826 104.296L325.336 104.525V104.527ZM322.479 98.7322C321.983 97.7746 321.479 96.8226 320.965 95.8762L321.441 95.6186C321.957 96.5678 322.462 97.5226 322.96 98.483L322.48 98.7322H322.479ZM319.396 93.051C318.863 92.113 318.321 91.182 317.771 90.2552L318.235 89.9794C318.787 90.909 319.332 91.8428 319.865 92.7836L319.395 93.051H319.396ZM316.092 87.4916C315.522 86.576 314.945 85.6646 314.359 84.7602L314.814 84.4662C315.402 85.3734 315.981 86.2862 316.553 87.206L316.093 87.4916H316.092ZM312.571 82.0638C311.968 81.1706 311.354 80.283 310.733 79.401L311.175 79.0888C311.798 79.9722 312.414 80.8626 313.02 81.76L312.572 82.0624L312.571 82.0638ZM308.841 76.776C308.202 75.9066 307.555 75.0428 306.9 74.186L307.329 73.857C307.987 74.7166 308.636 75.5818 309.278 76.4554L308.841 76.776ZM304.907 71.6352C304.235 70.791 303.554 69.9524 302.866 69.1222L303.282 68.7778C303.972 69.6108 304.655 70.4522 305.33 71.2992L304.907 71.6366V71.6352ZM300.775 66.6498C300.069 65.8322 299.356 65.0216 298.635 64.218L299.039 63.8568C299.761 64.6632 300.476 65.4766 301.185 66.297L300.775 66.6512V66.6498ZM296.45 61.8268C295.714 61.0372 294.97 60.2546 294.218 59.479L294.608 59.1024C295.362 59.8808 296.108 60.6662 296.846 61.4586L296.45 61.8268ZM291.941 57.1746C291.173 56.413 290.399 55.6598 289.618 54.9136L289.992 54.5216C290.776 55.2706 291.551 56.0252 292.321 56.7896L291.939 57.1732L291.941 57.1746ZM287.253 52.6988C286.457 51.968 285.655 51.2442 284.844 50.5302L285.202 50.1242C286.014 50.8424 286.821 51.5676 287.619 52.2998L287.253 52.6988ZM282.394 48.4078C281.571 47.7078 280.739 47.0176 279.902 46.333L280.245 45.9144C281.085 46.6004 281.919 47.2934 282.745 47.9948L282.395 48.4078H282.394ZM277.369 44.3086C276.518 43.6408 275.661 42.9828 274.798 42.3318L275.124 41.8992C275.99 42.5516 276.85 43.2124 277.704 43.8816L277.369 44.3072V44.3086ZM272.188 40.4068C271.312 39.7726 270.43 39.1482 269.541 38.5322L269.849 38.0884C270.74 38.7072 271.625 39.333 272.504 39.9686L272.188 40.4068ZM80.6806 38.661L80.3712 38.2172C81.2602 37.5984 82.1562 36.9894 83.0578 36.3874L83.3574 36.8382C82.4586 37.4374 81.5654 38.0464 80.6792 38.6624L80.6806 38.661ZM266.855 36.7094C265.955 36.1102 265.049 35.5208 264.137 34.9384L264.428 34.482C265.343 35.0658 266.253 35.658 267.156 36.2586L266.857 36.7094H266.855ZM86.0706 35.0658L85.7794 34.6094C86.6922 34.0256 87.6106 33.4516 88.536 32.886L88.8188 33.348C87.8962 33.9122 86.9806 34.4848 86.072 35.0658H86.0706ZM261.381 33.222C260.457 32.6592 259.529 32.1048 258.594 31.5588L258.867 31.0912C259.805 31.6386 260.737 32.1944 261.664 32.76L261.381 33.222ZM91.5964 31.6834L91.3234 31.2158C92.2572 30.6684 93.198 30.1308 94.1444 29.6016L94.409 30.0734C93.4654 30.6012 92.5288 31.1374 91.5978 31.6834H91.5964ZM255.773 29.9502C254.828 29.4238 253.877 28.9058 252.921 28.3976L253.176 27.9202C254.135 28.4298 255.088 28.9492 256.036 29.4784L255.773 29.9502ZM97.2496 28.5208L96.9948 28.0434C97.9496 27.5338 98.91 27.0326 99.876 26.5412L100.121 27.0242C99.1578 27.5142 98.2002 28.014 97.2482 28.5222L97.2496 28.5208ZM250.039 26.901C249.074 26.411 248.102 25.9308 247.128 25.4604L247.363 24.9732C248.343 25.445 249.316 25.9266 250.285 26.418L250.04 26.901H250.039ZM103.023 25.5822L102.787 25.095C103.761 24.6232 104.741 24.1598 105.725 23.7062L105.952 24.1976C104.971 24.6498 103.995 25.1104 103.023 25.5808V25.5822ZM244.188 24.0786C243.204 23.6278 242.215 23.1854 241.221 22.7528L241.437 22.2572C242.434 22.6912 243.426 23.1336 244.413 23.5872L244.188 24.0786ZM108.906 22.8732L108.689 22.3776C109.68 21.9436 110.677 21.5208 111.679 21.1064L111.887 21.6062C110.888 22.0192 109.894 22.442 108.906 22.8732ZM238.228 21.4872C237.226 21.0756 236.221 20.6724 235.21 20.2804L235.406 19.7764C236.421 20.1698 237.43 20.5744 238.434 20.9874L238.228 21.4872ZM114.891 20.398L114.694 19.894C115.702 19.5006 116.714 19.1156 117.732 18.7404L117.919 19.2486C116.906 19.6224 115.896 20.0046 114.891 20.398ZM232.166 19.1324C231.148 18.76 230.126 18.3974 229.102 18.0446L229.277 17.5336C230.307 17.8878 231.332 18.2518 232.352 18.6242L232.166 19.1324ZM120.967 18.1594L120.791 17.6484C121.813 17.2942 122.84 16.9512 123.871 16.6166L124.037 17.1318C123.01 17.465 121.986 17.808 120.967 18.1608V18.1594ZM226.015 17.0184C224.983 16.6866 223.947 16.3646 222.908 16.0524L223.063 15.5344C224.106 15.848 225.145 16.17 226.181 16.5032L226.015 17.0184ZM127.126 16.163L126.969 15.645C128.003 15.3314 129.044 15.0276 130.087 14.735L130.234 15.2558C129.193 15.5484 128.157 15.8508 127.126 16.163ZM219.793 15.1522C218.754 14.8624 217.711 14.5824 216.663 14.3122L216.798 13.7886C217.848 14.0588 218.896 14.3402 219.939 14.6314L219.793 15.1522ZM133.358 14.4102L133.223 13.8866C134.27 13.615 135.32 13.3518 136.374 13.0998L136.5 13.6262C135.45 13.8768 134.403 14.1386 133.36 14.4102H133.358ZM213.518 13.5352C212.468 13.286 211.414 13.048 210.357 12.8198L210.472 12.2906C211.533 12.5202 212.59 12.7596 213.643 13.0088L213.518 13.5352ZM139.654 12.9052L139.538 12.3774C140.594 12.1464 141.653 11.9252 142.717 11.7152L142.822 12.2458C141.763 12.4558 140.706 12.6756 139.654 12.9052ZM207.183 12.1674C206.125 11.9602 205.062 11.7642 203.997 11.5766L204.089 11.0432C205.159 11.2308 206.224 11.4282 207.287 11.6354L207.183 12.166V12.1674ZM146.003 11.648L145.908 11.116C146.972 10.927 148.039 10.7478 149.11 10.5798L149.194 11.1146C148.127 11.2826 147.063 11.4604 146.002 11.6494L146.003 11.648ZM200.799 11.0502C199.734 10.885 198.666 10.7296 197.592 10.5854L197.665 10.0492C198.741 10.1948 199.814 10.3502 200.883 10.5154L200.799 11.0502ZM152.396 10.6414L152.321 10.1052C153.391 9.95819 154.465 9.82099 155.541 9.69359L155.604 10.2312C154.532 10.3572 153.461 10.4944 152.396 10.6414ZM194.376 10.1822C193.305 10.059 192.231 9.94559 191.153 9.84199L191.205 9.30299C192.286 9.40659 193.362 9.51999 194.439 9.64319L194.376 10.1808V10.1822ZM158.822 9.88399L158.768 9.34499C159.844 9.23999 160.92 9.14479 162.001 9.05939L162.043 9.59839C160.966 9.68239 159.891 9.77759 158.82 9.88259L158.822 9.88399ZM187.925 9.56619C186.85 9.48499 185.772 9.41359 184.691 9.35199L184.722 8.81159C185.805 8.87319 186.887 8.94459 187.965 9.02579L187.925 9.56479V9.56619ZM165.271 9.37719L165.239 8.83679C166.317 8.77239 167.397 8.71919 168.48 8.67579L168.501 9.21619C167.422 9.25959 166.345 9.31279 165.271 9.37579V9.37719ZM181.455 9.20079C180.377 9.16159 179.298 9.13079 178.216 9.11119L178.226 8.57079C179.312 8.59039 180.396 8.61979 181.476 8.66039L181.457 9.20079H181.455ZM171.734 9.12099L171.723 8.58059C172.803 8.55819 173.887 8.54699 174.973 8.54559V9.08599C173.891 9.08739 172.812 9.09999 171.734 9.12099Z" fill="white"/>
<path d="M81.7895 40.068C80.8641 40.7036 79.5971 40.4698 78.9601 39.543C78.3245 38.6176 78.5583 37.3506 79.4851 36.7136C80.4105 36.078 81.6775 36.3118 82.3145 37.2386C82.9501 38.164 82.7163 39.431 81.7895 40.068Z" fill="white"/>
<path d="M81.942 40.2906C82.9892 39.571 83.2566 38.1332 82.5356 37.086C81.816 36.0388 80.3782 35.7714 79.331 36.4924C78.2838 37.212 78.0164 38.6498 78.7374 39.697C79.457 40.7442 80.8948 41.0116 81.942 40.2906C82.9892 39.571 80.8948 41.0102 81.942 40.2906ZM79.6376 36.9376C80.4398 36.386 81.5388 36.5904 82.0904 37.3926C82.642 38.1948 82.4376 39.2938 81.6354 39.8454C80.8332 40.397 79.7342 40.1926 79.1826 39.3904C78.631 38.5882 78.8354 37.4892 79.6376 36.9376C80.4398 36.386 78.8354 37.4892 79.6376 36.9376Z" fill="white"/>
<path d="M303.509 276.839C302.816 277.722 302.97 279.002 303.853 279.695C304.737 280.388 306.016 280.234 306.709 279.35C307.402 278.467 307.248 277.187 306.365 276.494C305.481 275.801 304.202 275.955 303.509 276.839Z" fill="white"/>
<path d="M303.296 276.672C304.08 275.673 305.533 275.498 306.533 276.282C307.532 277.066 307.707 278.519 306.923 279.518C306.139 280.518 304.686 280.693 303.687 279.909C302.687 279.125 302.512 277.672 303.296 276.672C304.08 275.673 302.512 277.672 303.296 276.672ZM306.496 279.184C307.097 278.418 306.963 277.308 306.198 276.707C305.432 276.107 304.322 276.241 303.722 277.005C303.121 277.771 303.255 278.881 304.02 279.482C304.786 280.083 305.896 279.948 306.496 279.184C307.097 278.418 305.896 279.95 306.496 279.184Z" fill="white"/>
</svg>
