<svg width="824" height="305" viewBox="0 0 824 305" fill="none" xmlns="http://www.w3.org/2000/svg">
<g clip-path="url(#clip0_35_29)">
<path d="M0 305V0H12.1062L81.1739 287.059H84.5884V0H90.6416V305H79.1561L10.0885 18.2862H6.20833V305H0Z" fill="white"/>
<path d="M112.371 305L161.882 0H173.833L223.345 305H217.291L203.012 217.019H133.013L118.579 305H112.371ZM135.031 204.253H200.529L169.643 13.8009H165.918L135.031 204.253Z" fill="white"/>
<path d="M241.349 305V291.889H308.088L321.591 261.182V184.587L308.088 154.57H253.455L236.227 115.583V38.9876L253.455 0H321.281V13.1109H255.938L242.28 43.8179V112.822L255.938 142.839H310.416L327.8 182.172V266.357L310.416 305H241.349Z" fill="white"/>
<path d="M381.502 305V55.2036H343.32V0H448.862V55.2036H410.526V305H381.502Z" fill="white"/>
<path d="M464.693 305V0H563.716V55.2036H493.717V120.413H557.197V172.511H493.717V250.141H563.716V305H464.693Z" fill="white"/>
<path d="M604.07 305L583.272 259.112V45.888L604.07 0H671.586L691.607 43.8179L673.138 83.1505L658.703 52.0984H619.901L612.451 69.0045V236.34L619.901 252.902H660.255L674.379 221.85L692.849 261.182L673.138 305H604.07Z" fill="white"/>
<path d="M712.405 305V0H741.429V117.998H794.976V0H824V305H794.976V172.511H741.429V305H712.405Z" fill="white"/>
</g>
<defs>
<clipPath id="clip0_35_29">
<rect width="824" height="305" fill="white"/>
</clipPath>
</defs>
</svg>
