<svg width="350" height="350" viewBox="0 0 350 350" fill="none" xmlns="http://www.w3.org/2000/svg">
<g clip-path="url(#clip0_10_496)">
<path opacity="0.5" fill-rule="evenodd" clip-rule="evenodd" d="M280.405 71.323C279.443 70.371 278.184 69.8936 276.924 69.8936C275.664 69.8936 274.408 70.371 273.447 71.323C272.482 72.275 272.002 73.5238 272.002 74.7712C272.002 76.0186 272.482 77.2646 273.444 78.2166C274.408 79.1714 275.667 79.6474 276.924 79.6474C278.181 79.6474 279.443 79.1714 280.405 78.2194L280.448 78.1732C281.38 77.2268 281.847 75.999 281.847 74.7712C281.847 73.5434 281.365 72.2764 280.405 71.323Z" stroke="white" stroke-miterlimit="10"/>
<path opacity="0.5" fill-rule="evenodd" clip-rule="evenodd" d="M280.694 277.511C281.656 276.559 282.136 275.31 282.136 274.063C282.136 272.815 281.655 271.569 280.694 270.617C279.733 269.662 278.474 269.185 277.214 269.185C275.954 269.185 274.698 269.661 273.736 270.613C272.772 271.569 272.292 272.815 272.292 274.061C272.292 275.307 272.772 276.557 273.734 277.509L273.78 277.551C274.736 278.474 275.975 278.937 277.214 278.937C278.453 278.937 279.733 278.46 280.694 277.508V277.511Z" stroke="white" stroke-miterlimit="10"/>
<path opacity="0.5" fill-rule="evenodd" clip-rule="evenodd" d="M194.568 30.9582L193.708 30.8546L192.961 36.883L193.82 36.9866L194.568 30.9582Z" fill="white"/>
<path opacity="0.5" fill-rule="evenodd" clip-rule="evenodd" d="M197.092 31.2956L196.235 31.1766L195.381 37.191L196.238 37.3086L197.092 31.2956Z" fill="white"/>
<path opacity="0.5" fill-rule="evenodd" clip-rule="evenodd" d="M199.608 31.6764L198.755 31.542L197.796 37.541L198.649 37.6754L199.608 31.6764Z" fill="white"/>
<path opacity="0.5" fill-rule="evenodd" clip-rule="evenodd" d="M202.121 32.0992L201.267 31.9522L200.203 37.933L201.055 38.08L202.121 32.0992Z" fill="white"/>
<path opacity="0.5" fill-rule="evenodd" clip-rule="evenodd" d="M204.623 32.5668L203.773 32.4044L202.604 38.367L203.454 38.528L204.623 32.5668Z" fill="white"/>
<path opacity="0.5" fill-rule="evenodd" clip-rule="evenodd" d="M207.117 33.0778L206.27 32.9L204.996 38.8402L205.842 39.018L207.117 33.0778Z" fill="white"/>
<path opacity="0.5" fill-rule="evenodd" clip-rule="evenodd" d="M209.601 33.6294L208.758 33.439L207.379 39.3568L208.222 39.5472L209.601 33.6294Z" fill="white"/>
<path opacity="0.5" fill-rule="evenodd" clip-rule="evenodd" d="M212.076 34.2258L211.238 34.0214L209.754 39.914L210.594 40.1184L212.076 34.2258Z" fill="white"/>
<path opacity="0.5" fill-rule="evenodd" clip-rule="evenodd" d="M214.54 34.8656L213.704 34.6444L212.118 40.5104L212.954 40.7316L214.54 34.8656Z" fill="white"/>
<path opacity="0.5" fill-rule="evenodd" clip-rule="evenodd" d="M216.993 35.5474L216.16 35.3122L214.47 41.1502L215.303 41.3854L216.993 35.5474Z" fill="white"/>
<path opacity="0.5" fill-rule="evenodd" clip-rule="evenodd" d="M219.432 36.2698L218.606 36.022L216.812 41.8292L217.639 42.0784L219.432 36.2698Z" fill="white"/>
<path opacity="0.5" fill-rule="evenodd" clip-rule="evenodd" d="M221.859 37.037L221.036 36.7724L219.142 42.5474L219.964 42.8134L221.859 37.037Z" fill="white"/>
<path opacity="0.5" fill-rule="evenodd" clip-rule="evenodd" d="M224.272 37.8434L223.453 37.5662L221.458 43.309L222.277 43.5876L224.272 37.8434Z" fill="white"/>
<path opacity="0.5" fill-rule="evenodd" clip-rule="evenodd" d="M226.67 38.6932L225.858 38.4006L223.761 44.1084L224.573 44.3996L226.67 38.6932Z" fill="white"/>
<path opacity="0.5" fill-rule="evenodd" clip-rule="evenodd" d="M229.051 39.5836L228.246 39.2784L226.05 44.9484L226.855 45.2536L229.051 39.5836Z" fill="white"/>
<path opacity="0.5" fill-rule="evenodd" clip-rule="evenodd" d="M231.42 40.5146L230.618 40.1968L228.32 45.8276L229.123 46.1454L231.42 40.5146Z" fill="white"/>
<path opacity="0.5" fill-rule="evenodd" clip-rule="evenodd" d="M233.769 41.489L232.974 41.153L230.579 46.7432L231.374 47.0792L233.769 41.489Z" fill="white"/>
<path opacity="0.5" fill-rule="evenodd" clip-rule="evenodd" d="M236.102 42.5012L235.313 42.1526L232.82 47.7008L233.608 48.0494L236.102 42.5012Z" fill="white"/>
<path opacity="0.5" fill-rule="evenodd" clip-rule="evenodd" d="M238.417 43.554L237.632 43.1928L235.042 48.6962L235.827 49.0588L238.417 43.554Z" fill="white"/>
<path opacity="0.5" fill-rule="evenodd" clip-rule="evenodd" d="M240.713 44.6474L239.935 44.2722L237.247 49.7308L238.025 50.106L240.713 44.6474Z" fill="white"/>
<path opacity="0.5" fill-rule="evenodd" clip-rule="evenodd" d="M242.988 45.78L242.217 45.3908L239.434 50.8018L240.205 51.191L242.988 45.78Z" fill="white"/>
<path opacity="0.5" fill-rule="evenodd" clip-rule="evenodd" d="M245.245 46.9518L244.479 46.5486L241.601 51.912L242.367 52.3138L245.245 46.9518Z" fill="white"/>
<path opacity="0.5" fill-rule="evenodd" clip-rule="evenodd" d="M247.478 48.1614L246.723 47.747L243.751 53.0586L244.506 53.4744L247.478 48.1614Z" fill="white"/>
<path opacity="0.5" fill-rule="evenodd" clip-rule="evenodd" d="M249.691 49.4088L248.942 48.9832L245.878 54.243L246.625 54.6686L249.691 49.4088Z" fill="white"/>
<path opacity="0.5" fill-rule="evenodd" clip-rule="evenodd" d="M251.881 50.6968L251.14 50.2572L247.983 55.4638L248.724 55.902L251.881 50.6968Z" fill="white"/>
<path opacity="0.5" fill-rule="evenodd" clip-rule="evenodd" d="M254.05 52.0212L253.316 51.569L250.067 56.7196L250.802 57.1718L254.05 52.0212Z" fill="white"/>
<path opacity="0.5" fill-rule="evenodd" clip-rule="evenodd" d="M256.193 53.3848L255.469 52.9186L252.13 58.0118L252.854 58.478L256.193 53.3848Z" fill="white"/>
<path opacity="0.5" fill-rule="evenodd" clip-rule="evenodd" d="M258.313 54.7834L257.596 54.3032L254.167 59.339L254.885 59.8178L258.313 54.7834Z" fill="white"/>
<path opacity="0.5" fill-rule="evenodd" clip-rule="evenodd" d="M260.407 56.217L259.7 55.7284L256.183 60.7026L256.89 61.1926L260.407 56.217Z" fill="white"/>
<path opacity="0.5" fill-rule="evenodd" clip-rule="evenodd" d="M262.478 57.6884L261.776 57.1858L258.173 62.0998L258.874 62.6024L262.478 57.6884Z" fill="white"/>
<path opacity="0.5" fill-rule="evenodd" clip-rule="evenodd" d="M264.519 59.1976L263.829 58.681L260.14 63.5306L260.83 64.0472L264.519 59.1976Z" fill="white"/>
<path opacity="0.5" fill-rule="evenodd" clip-rule="evenodd" d="M266.535 60.7376L265.854 60.2112L262.08 64.9964L262.76 65.5228L266.535 60.7376Z" fill="white"/>
<path opacity="0.5" fill-rule="evenodd" clip-rule="evenodd" d="M268.523 62.3154L267.852 61.775L263.995 66.4958L264.664 67.0348L268.523 62.3154Z" fill="white"/>
<path opacity="0.5" fill-rule="evenodd" clip-rule="evenodd" d="M270.484 63.9254L269.822 63.3752L265.881 68.0274L266.545 68.5776L270.484 63.9254Z" fill="white"/>
<path opacity="0.5" fill-rule="evenodd" clip-rule="evenodd" d="M272.416 65.569L271.764 65.009L267.742 69.5912L268.394 70.1512L272.416 65.569Z" fill="white"/>
<path opacity="0.5" fill-rule="evenodd" clip-rule="evenodd" d="M274.319 67.2462L273.676 66.6736L269.574 71.1872L270.217 71.7598L274.319 67.2462Z" fill="white"/>
<path opacity="0.5" fill-rule="evenodd" clip-rule="evenodd" d="M285.088 77.9786L284.508 77.3416L279.952 81.4044L280.531 82.0414L285.088 77.9786Z" fill="white"/>
<path opacity="0.5" fill-rule="evenodd" clip-rule="evenodd" d="M286.768 79.8728L286.203 79.226L281.576 83.2104L282.141 83.8572L286.768 79.8728Z" fill="white"/>
<path opacity="0.5" fill-rule="evenodd" clip-rule="evenodd" d="M288.417 81.7964L287.861 81.1384L283.165 85.043L283.721 85.701L288.417 81.7964Z" fill="white"/>
<path opacity="0.5" fill-rule="evenodd" clip-rule="evenodd" d="M290.032 83.7466L289.486 83.083L284.722 86.905L285.268 87.5686L290.032 83.7466Z" fill="white"/>
<path opacity="0.5" fill-rule="evenodd" clip-rule="evenodd" d="M291.61 85.7262L291.08 85.0528L286.248 88.7908L286.78 89.4656L291.61 85.7262Z" fill="white"/>
<path opacity="0.5" fill-rule="evenodd" clip-rule="evenodd" d="M293.156 87.7324L292.635 87.0492L287.738 90.7032L288.26 91.3878L293.156 87.7324Z" fill="white"/>
<path opacity="0.5" fill-rule="evenodd" clip-rule="evenodd" d="M294.664 89.7652L294.157 89.0722L289.197 92.6422L289.705 93.3352L294.664 89.7652Z" fill="white"/>
<path opacity="0.5" fill-rule="evenodd" clip-rule="evenodd" d="M296.136 91.8232L295.642 91.1218L290.62 94.6064L291.115 95.3064L296.136 91.8232Z" fill="white"/>
<path opacity="0.5" fill-rule="evenodd" clip-rule="evenodd" d="M297.574 93.9078L297.09 93.1966L292.006 96.593L292.491 97.3028L297.574 93.9078Z" fill="white"/>
<path opacity="0.5" fill-rule="evenodd" clip-rule="evenodd" d="M298.973 96.0148L298.502 95.298L293.36 98.6048L293.831 99.323L298.973 96.0148Z" fill="white"/>
<path opacity="0.5" fill-rule="evenodd" clip-rule="evenodd" d="M300.334 98.147L299.877 97.4204L294.679 100.639L295.135 101.366L300.334 98.147Z" fill="white"/>
<path opacity="0.5" fill-rule="evenodd" clip-rule="evenodd" d="M301.658 100.302L301.216 99.568L295.96 102.696L296.404 103.431L301.658 100.302Z" fill="white"/>
<path opacity="0.5" fill-rule="evenodd" clip-rule="evenodd" d="M302.945 102.48L302.515 101.738L297.205 104.775L297.634 105.515L302.945 102.48Z" fill="white"/>
<path opacity="0.5" fill-rule="evenodd" clip-rule="evenodd" d="M304.193 104.678L303.773 103.93L298.411 106.876L298.831 107.622L304.193 104.678Z" fill="white"/>
<path opacity="0.5" fill-rule="evenodd" clip-rule="evenodd" d="M305.402 106.901L304.996 106.144L299.582 108.994L299.989 109.752L305.402 106.901Z" fill="white"/>
<path opacity="0.5" fill-rule="evenodd" clip-rule="evenodd" d="M306.571 109.143L306.179 108.378L300.716 111.135L301.108 111.899L306.571 109.143Z" fill="white"/>
<path opacity="0.5" fill-rule="evenodd" clip-rule="evenodd" d="M307.7 111.404L307.322 110.632L301.811 113.295L302.19 114.066L307.7 111.404Z" fill="white"/>
<path opacity="0.5" fill-rule="evenodd" clip-rule="evenodd" d="M308.79 113.684L308.426 112.906L302.869 115.473L303.234 116.25L308.79 113.684Z" fill="white"/>
<path opacity="0.5" fill-rule="evenodd" clip-rule="evenodd" d="M309.84 115.982L309.488 115.2L303.887 117.671L304.24 118.451L309.84 115.982Z" fill="white"/>
<path opacity="0.5" fill-rule="evenodd" clip-rule="evenodd" d="M310.849 118.299L310.51 117.51L304.867 119.883L305.206 120.672L310.849 118.299Z" fill="white"/>
<path opacity="0.5" fill-rule="evenodd" clip-rule="evenodd" d="M311.815 120.632L311.493 119.839L305.809 122.114L306.13 122.907L311.815 120.632Z" fill="white"/>
<path opacity="0.5" fill-rule="evenodd" clip-rule="evenodd" d="M312.742 122.983L312.434 122.185L306.711 124.361L307.017 125.159L312.742 122.983Z" fill="white"/>
<path opacity="0.5" fill-rule="evenodd" clip-rule="evenodd" d="M313.627 125.349L313.333 124.544L307.572 126.622L307.866 127.427L313.627 125.349Z" fill="white"/>
<path opacity="0.5" fill-rule="evenodd" clip-rule="evenodd" d="M314.469 127.73L314.189 126.92L308.392 128.897L308.673 129.707L314.469 127.73Z" fill="white"/>
<path opacity="0.5" fill-rule="evenodd" clip-rule="evenodd" d="M315.272 130.124L315.004 129.31L309.173 131.187L309.441 132.002L315.272 130.124Z" fill="white"/>
<path opacity="0.5" fill-rule="evenodd" clip-rule="evenodd" d="M316.029 132.532L315.779 131.715L309.915 133.49L310.166 134.308L316.029 132.532Z" fill="white"/>
<path opacity="0.5" fill-rule="evenodd" clip-rule="evenodd" d="M316.744 134.954L316.508 134.13L310.615 135.804L310.852 136.629L316.744 134.954Z" fill="white"/>
<path opacity="0.5" fill-rule="evenodd" clip-rule="evenodd" d="M317.419 137.388L317.195 136.56L311.273 138.132L311.497 138.96L317.419 137.388Z" fill="white"/>
<path opacity="0.5" fill-rule="evenodd" clip-rule="evenodd" d="M318.048 139.832L317.842 139L311.893 140.47L312.099 141.302L318.048 139.832Z" fill="white"/>
<path opacity="0.5" fill-rule="evenodd" clip-rule="evenodd" d="M318.636 142.288L318.443 141.452L312.47 142.818L312.662 143.654L318.636 142.288Z" fill="white"/>
<path opacity="0.5" fill-rule="evenodd" clip-rule="evenodd" d="M319.18 144.752L319.001 143.914L313.004 145.177L313.184 146.014L319.18 144.752Z" fill="white"/>
<path opacity="0.5" fill-rule="evenodd" clip-rule="evenodd" d="M319.68 147.225L319.518 146.384L313.499 147.543L313.662 148.385L319.68 147.225Z" fill="white"/>
<path opacity="0.5" fill-rule="evenodd" clip-rule="evenodd" d="M320.138 149.709L319.988 148.863L313.95 149.919L314.1 150.763L320.138 149.709Z" fill="white"/>
<path opacity="0.5" fill-rule="evenodd" clip-rule="evenodd" d="M320.551 152.197L320.415 151.353L314.36 152.302L314.496 153.146L320.551 152.197Z" fill="white"/>
<path opacity="0.5" fill-rule="evenodd" clip-rule="evenodd" d="M320.919 154.693L320.8 153.846L314.729 154.692L314.847 155.539L320.919 154.693Z" fill="white"/>
<path opacity="0.5" fill-rule="evenodd" clip-rule="evenodd" d="M321.244 157.198L321.139 156.345L315.055 157.086L315.16 157.937L321.244 157.198Z" fill="white"/>
<path opacity="0.5" fill-rule="evenodd" clip-rule="evenodd" d="M321.524 159.704L321.436 158.852L315.339 159.487L315.427 160.338L321.524 159.704Z" fill="white"/>
<path opacity="0.5" fill-rule="evenodd" clip-rule="evenodd" d="M321.762 162.217L321.686 161.363L315.58 161.892L315.654 162.746L321.762 162.217Z" fill="white"/>
<path opacity="0.5" fill-rule="evenodd" clip-rule="evenodd" d="M321.952 164.732L321.896 163.877L315.78 164.301L315.837 165.155L321.952 164.732Z" fill="white"/>
<path opacity="0.5" fill-rule="evenodd" clip-rule="evenodd" d="M322.102 167.251L322.058 166.396L315.935 166.713L315.98 167.569L322.102 167.251Z" fill="white"/>
<path opacity="0.5" fill-rule="evenodd" clip-rule="evenodd" d="M322.058 182.382L322.102 181.527L315.98 181.209L315.935 182.063L322.058 182.382Z" fill="white"/>
<path opacity="0.5" fill-rule="evenodd" clip-rule="evenodd" d="M321.896 184.901L321.952 184.045L315.837 183.621L315.78 184.477L321.896 184.901Z" fill="white"/>
<path opacity="0.5" fill-rule="evenodd" clip-rule="evenodd" d="M321.686 187.415L321.762 186.56L315.654 186.031L315.58 186.886L321.686 187.415Z" fill="white"/>
<path opacity="0.5" fill-rule="evenodd" clip-rule="evenodd" d="M321.436 189.925L321.524 189.073L315.427 188.439L315.339 189.29L321.436 189.925Z" fill="white"/>
<path opacity="0.5" fill-rule="evenodd" clip-rule="evenodd" d="M321.139 192.431L321.244 191.58L315.16 190.84L315.055 191.691L321.139 192.431Z" fill="white"/>
<path opacity="0.5" fill-rule="evenodd" clip-rule="evenodd" d="M320.8 194.932L320.919 194.083L314.847 193.238L314.729 194.086L320.8 194.932Z" fill="white"/>
<path opacity="0.5" fill-rule="evenodd" clip-rule="evenodd" d="M320.415 197.425L320.551 196.58L314.496 195.63L314.36 196.475L320.415 197.425Z" fill="white"/>
<path opacity="0.5" fill-rule="evenodd" clip-rule="evenodd" d="M319.988 199.913L320.138 199.069L314.1 198.015L313.95 198.859L319.988 199.913Z" fill="white"/>
<path opacity="0.5" fill-rule="evenodd" clip-rule="evenodd" d="M319.518 202.392L319.68 201.551L313.662 200.392L313.499 201.233L319.518 202.392Z" fill="white"/>
<path opacity="0.5" fill-rule="evenodd" clip-rule="evenodd" d="M319.001 204.863L319.18 204.025L313.184 202.762L313.004 203.601L319.001 204.863Z" fill="white"/>
<path opacity="0.5" fill-rule="evenodd" clip-rule="evenodd" d="M318.443 207.325L318.636 206.49L312.662 205.124L312.47 205.958L318.443 207.325Z" fill="white"/>
<path opacity="0.5" fill-rule="evenodd" clip-rule="evenodd" d="M317.842 209.776L318.048 208.944L312.099 207.476L311.893 208.307L317.842 209.776Z" fill="white"/>
<path opacity="0.5" fill-rule="evenodd" clip-rule="evenodd" d="M317.195 212.218L317.419 211.389L311.497 209.818L311.273 210.645L317.195 212.218Z" fill="white"/>
<path opacity="0.5" fill-rule="evenodd" clip-rule="evenodd" d="M316.508 214.647L316.744 213.822L310.852 212.149L310.615 212.972L316.508 214.647Z" fill="white"/>
<path opacity="0.5" fill-rule="evenodd" clip-rule="evenodd" d="M315.779 217.063L316.029 216.244L310.166 214.469L309.915 215.286L315.779 217.063Z" fill="white"/>
<path opacity="0.5" fill-rule="evenodd" clip-rule="evenodd" d="M315.004 219.467L315.272 218.652L309.441 216.776L309.173 217.591L315.004 219.467Z" fill="white"/>
<path opacity="0.5" fill-rule="evenodd" clip-rule="evenodd" d="M314.189 221.858L314.469 221.047L308.673 219.069L308.392 219.881L314.189 221.858Z" fill="white"/>
<path opacity="0.5" fill-rule="evenodd" clip-rule="evenodd" d="M313.333 224.232L313.627 223.429L307.866 221.351L307.572 222.156L313.333 224.232Z" fill="white"/>
<path opacity="0.5" fill-rule="evenodd" clip-rule="evenodd" d="M312.434 226.593L312.742 225.795L307.017 223.618L306.711 224.416L312.434 226.593Z" fill="white"/>
<path opacity="0.5" fill-rule="evenodd" clip-rule="evenodd" d="M311.493 228.939L311.815 228.144L306.13 225.869L305.809 226.664L311.493 228.939Z" fill="white"/>
<path opacity="0.5" fill-rule="evenodd" clip-rule="evenodd" d="M310.51 231.266L310.849 230.478L305.206 228.105L304.867 228.893L310.51 231.266Z" fill="white"/>
<path opacity="0.5" fill-rule="evenodd" clip-rule="evenodd" d="M309.488 233.576L309.84 232.796L304.24 230.325L303.887 231.106L309.488 233.576Z" fill="white"/>
<path opacity="0.5" fill-rule="evenodd" clip-rule="evenodd" d="M308.426 235.871L308.79 235.094L303.234 232.526L302.869 233.304L308.426 235.871Z" fill="white"/>
<path opacity="0.5" fill-rule="evenodd" clip-rule="evenodd" d="M307.322 238.144L307.7 237.373L302.19 234.711L301.811 235.483L307.322 238.144Z" fill="white"/>
<path opacity="0.5" fill-rule="evenodd" clip-rule="evenodd" d="M306.179 240.4L306.571 239.635L301.108 236.877L300.716 237.642L306.179 240.4Z" fill="white"/>
<path opacity="0.5" fill-rule="evenodd" clip-rule="evenodd" d="M304.996 242.634L305.402 241.877L299.989 239.025L299.582 239.784L304.996 242.634Z" fill="white"/>
<path opacity="0.5" fill-rule="evenodd" clip-rule="evenodd" d="M303.773 244.846L304.193 244.098L298.831 241.154L298.411 241.902L303.773 244.846Z" fill="white"/>
<path opacity="0.5" fill-rule="evenodd" clip-rule="evenodd" d="M302.515 247.038L302.945 246.298L297.634 243.261L297.205 244.002L302.515 247.038Z" fill="white"/>
<path opacity="0.5" fill-rule="evenodd" clip-rule="evenodd" d="M301.216 249.208L301.658 248.475L296.404 245.347L295.96 246.081L301.216 249.208Z" fill="white"/>
<path opacity="0.5" fill-rule="evenodd" clip-rule="evenodd" d="M299.877 251.357L300.334 250.629L295.135 247.411L294.679 248.139L299.877 251.357Z" fill="white"/>
<path opacity="0.5" fill-rule="evenodd" clip-rule="evenodd" d="M298.502 253.48L298.973 252.763L293.831 249.455L293.36 250.172L298.502 253.48Z" fill="white"/>
<path opacity="0.5" fill-rule="evenodd" clip-rule="evenodd" d="M297.09 255.58L297.574 254.87L292.491 251.474L292.006 252.185L297.09 255.58Z" fill="white"/>
<path opacity="0.5" fill-rule="evenodd" clip-rule="evenodd" d="M295.642 257.655L296.136 256.953L291.115 253.47L290.62 254.171L295.642 257.655Z" fill="white"/>
<path opacity="0.5" fill-rule="evenodd" clip-rule="evenodd" d="M294.157 259.706L294.664 259.011L289.705 255.441L289.197 256.136L294.157 259.706Z" fill="white"/>
<path opacity="0.5" fill-rule="evenodd" clip-rule="evenodd" d="M292.635 261.729L293.156 261.044L288.26 257.389L287.738 258.073L292.635 261.729Z" fill="white"/>
<path opacity="0.5" fill-rule="evenodd" clip-rule="evenodd" d="M291.08 263.725L291.61 263.052L286.78 259.312L286.248 259.986L291.08 263.725Z" fill="white"/>
<path opacity="0.5" fill-rule="evenodd" clip-rule="evenodd" d="M289.486 265.695L290.032 265.031L285.268 261.209L284.722 261.873L289.486 265.695Z" fill="white"/>
<path opacity="0.5" fill-rule="evenodd" clip-rule="evenodd" d="M287.861 267.638L288.417 266.981L283.721 263.077L283.165 263.735L287.861 267.638Z" fill="white"/>
<path opacity="0.5" fill-rule="evenodd" clip-rule="evenodd" d="M286.203 269.552L286.768 268.905L282.141 264.921L281.576 265.567L286.203 269.552Z" fill="white"/>
<path opacity="0.5" fill-rule="evenodd" clip-rule="evenodd" d="M284.508 271.436L285.088 270.799L280.531 266.735L279.952 267.372L284.508 271.436Z" fill="white"/>
<path opacity="0.5" fill-rule="evenodd" clip-rule="evenodd" d="M273.676 282.104L274.319 281.53L270.217 277.017L269.574 277.591L273.676 282.104Z" fill="white"/>
<path opacity="0.5" fill-rule="evenodd" clip-rule="evenodd" d="M271.764 283.769L272.416 283.209L268.394 278.625L267.742 279.185L271.764 283.769Z" fill="white"/>
<path opacity="0.5" fill-rule="evenodd" clip-rule="evenodd" d="M269.822 285.403L270.484 284.852L266.545 280.2L265.881 280.75L269.822 285.403Z" fill="white"/>
<path opacity="0.5" fill-rule="evenodd" clip-rule="evenodd" d="M267.852 287.003L268.523 286.462L264.664 281.742L263.995 282.282L267.852 287.003Z" fill="white"/>
<path opacity="0.5" fill-rule="evenodd" clip-rule="evenodd" d="M265.854 288.565L266.535 288.04L262.76 283.254L262.08 283.78L265.854 288.565Z" fill="white"/>
<path opacity="0.5" fill-rule="evenodd" clip-rule="evenodd" d="M263.829 290.097L264.519 289.58L260.83 284.731L260.14 285.247L263.829 290.097Z" fill="white"/>
<path opacity="0.5" fill-rule="evenodd" clip-rule="evenodd" d="M261.776 291.591L262.478 291.088L258.874 286.175L258.173 286.678L261.776 291.591Z" fill="white"/>
<path opacity="0.5" fill-rule="evenodd" clip-rule="evenodd" d="M259.7 293.049L260.407 292.559L256.89 287.585L256.183 288.074L259.7 293.049Z" fill="white"/>
<path opacity="0.5" fill-rule="evenodd" clip-rule="evenodd" d="M257.596 294.473L258.313 293.994L254.885 288.959L254.167 289.439L257.596 294.473Z" fill="white"/>
<path opacity="0.5" fill-rule="evenodd" clip-rule="evenodd" d="M255.469 295.859L256.193 295.393L252.854 290.3L252.13 290.766L255.469 295.859Z" fill="white"/>
<path opacity="0.5" fill-rule="evenodd" clip-rule="evenodd" d="M253.316 297.207L254.05 296.755L250.802 291.605L250.067 292.057L253.316 297.207Z" fill="white"/>
<path opacity="0.5" fill-rule="evenodd" clip-rule="evenodd" d="M251.14 298.519L251.881 298.081L248.724 292.874L247.983 293.314L251.14 298.519Z" fill="white"/>
<path opacity="0.5" fill-rule="evenodd" clip-rule="evenodd" d="M248.942 299.795L249.691 299.366L246.625 294.106L245.878 294.535L248.942 299.795Z" fill="white"/>
<path opacity="0.5" fill-rule="evenodd" clip-rule="evenodd" d="M246.723 301.031L247.478 300.615L244.506 295.303L243.751 295.719L246.723 301.031Z" fill="white"/>
<path opacity="0.5" fill-rule="evenodd" clip-rule="evenodd" d="M244.479 302.228L245.245 301.826L242.367 296.463L241.601 296.866L244.479 302.228Z" fill="white"/>
<path opacity="0.5" fill-rule="evenodd" clip-rule="evenodd" d="M242.217 303.386L242.988 302.998L240.205 297.585L239.434 297.975L242.217 303.386Z" fill="white"/>
<path opacity="0.5" fill-rule="evenodd" clip-rule="evenodd" d="M239.935 304.506L240.713 304.129L238.025 298.67L237.247 299.047L239.935 304.506Z" fill="white"/>
<path opacity="0.5" fill-rule="evenodd" clip-rule="evenodd" d="M237.632 305.585L238.417 305.222L235.827 299.719L235.042 300.08L237.632 305.585Z" fill="white"/>
<path opacity="0.5" fill-rule="evenodd" clip-rule="evenodd" d="M235.313 306.624L236.102 306.275L233.608 300.728L232.82 301.076L235.313 306.624Z" fill="white"/>
<path opacity="0.5" fill-rule="evenodd" clip-rule="evenodd" d="M232.974 307.623L233.769 307.289L231.374 301.699L230.579 302.033L232.974 307.623Z" fill="white"/>
<path opacity="0.5" fill-rule="evenodd" clip-rule="evenodd" d="M230.618 308.581L231.42 308.263L229.123 302.631L228.32 302.95L230.618 308.581Z" fill="white"/>
<path opacity="0.5" fill-rule="evenodd" clip-rule="evenodd" d="M228.246 309.498L229.051 309.194L226.855 303.524L226.05 303.829L228.246 309.498Z" fill="white"/>
<path opacity="0.5" fill-rule="evenodd" clip-rule="evenodd" d="M225.858 310.376L226.67 310.083L224.573 304.377L223.761 304.669L225.858 310.376Z" fill="white"/>
<path opacity="0.5" fill-rule="evenodd" clip-rule="evenodd" d="M223.453 311.212L224.272 310.933L222.277 305.19L221.458 305.469L223.453 311.212Z" fill="white"/>
<path opacity="0.5" fill-rule="evenodd" clip-rule="evenodd" d="M221.036 312.005L221.859 311.739L219.964 305.964L219.142 306.229L221.036 312.005Z" fill="white"/>
<path opacity="0.5" fill-rule="evenodd" clip-rule="evenodd" d="M218.606 312.756L219.432 312.507L217.639 306.699L216.812 306.947L218.606 312.756Z" fill="white"/>
<path opacity="0.5" fill-rule="evenodd" clip-rule="evenodd" d="M216.16 313.466L216.993 313.23L215.303 307.392L214.47 307.628L216.16 313.466Z" fill="white"/>
<path opacity="0.5" fill-rule="evenodd" clip-rule="evenodd" d="M213.704 314.132L214.54 313.911L212.954 308.045L212.118 308.266L213.704 314.132Z" fill="white"/>
<path opacity="0.5" fill-rule="evenodd" clip-rule="evenodd" d="M211.238 314.756L212.076 314.552L210.594 308.658L209.754 308.864L211.238 314.756Z" fill="white"/>
<path opacity="0.5" fill-rule="evenodd" clip-rule="evenodd" d="M208.758 315.339L209.601 315.147L208.222 309.229L207.379 309.421L208.758 315.339Z" fill="white"/>
<path opacity="0.5" fill-rule="evenodd" clip-rule="evenodd" d="M206.27 315.878L207.117 315.7L205.842 309.76L204.996 309.938L206.27 315.878Z" fill="white"/>
<path opacity="0.5" fill-rule="evenodd" clip-rule="evenodd" d="M203.773 316.372L204.623 316.211L203.454 310.25L202.604 310.411L203.773 316.372Z" fill="white"/>
<path opacity="0.5" fill-rule="evenodd" clip-rule="evenodd" d="M201.267 316.826L202.121 316.677L201.055 310.696L200.203 310.845L201.267 316.826Z" fill="white"/>
<path opacity="0.5" fill-rule="evenodd" clip-rule="evenodd" d="M198.755 317.236L199.608 317.101L198.649 311.102L197.796 311.237L198.755 317.236Z" fill="white"/>
<path opacity="0.5" fill-rule="evenodd" clip-rule="evenodd" d="M196.235 317.6L197.092 317.482L196.238 311.468L195.381 311.585L196.235 317.6Z" fill="white"/>
<path opacity="0.5" fill-rule="evenodd" clip-rule="evenodd" d="M193.708 317.922L194.568 317.818L193.82 311.79L192.961 311.895L193.708 317.922Z" fill="white"/>
<path opacity="0.5" fill-rule="evenodd" clip-rule="evenodd" d="M71.7921 277.511C72.7539 278.463 74.0139 278.94 75.2725 278.94C76.5311 278.94 77.7883 278.463 78.7501 277.511C79.7147 276.559 80.1949 275.311 80.1949 274.063C80.1949 272.814 79.7147 271.571 78.7529 270.617C77.7883 269.662 76.5297 269.185 75.2725 269.185C74.0153 269.185 72.7539 269.661 71.7921 270.613L71.7487 270.659C70.8177 271.606 70.3501 272.833 70.3501 274.061C70.3501 275.289 70.8317 276.556 71.7921 277.509V277.511Z" stroke="white" stroke-miterlimit="10"/>
<path opacity="0.5" fill-rule="evenodd" clip-rule="evenodd" d="M168.286 318.728L168.606 312.663L169.469 312.707L169.148 318.772L168.286 318.728Z" fill="white"/>
<path opacity="0.5" fill-rule="evenodd" clip-rule="evenodd" d="M165.743 318.567L166.17 312.509L167.034 312.565L166.607 318.625L165.743 318.567Z" fill="white"/>
<path opacity="0.5" fill-rule="evenodd" clip-rule="evenodd" d="M163.204 318.361L163.738 312.311L164.601 312.385L164.067 318.434L163.204 318.361Z" fill="white"/>
<path opacity="0.5" fill-rule="evenodd" clip-rule="evenodd" d="M160.671 318.112L161.312 312.073L162.17 312.159L161.531 318.199L160.671 318.112Z" fill="white"/>
<path opacity="0.5" fill-rule="evenodd" clip-rule="evenodd" d="M158.14 317.818L158.888 311.79L159.747 311.895L158.999 317.922L158.14 317.818Z" fill="white"/>
<path opacity="0.5" fill-rule="evenodd" clip-rule="evenodd" d="M155.617 317.482L156.47 311.468L157.326 311.585L156.474 317.6L155.617 317.482Z" fill="white"/>
<path opacity="0.5" fill-rule="evenodd" clip-rule="evenodd" d="M153.1 317.101L154.059 311.102L154.911 311.237L153.952 317.236L153.1 317.101Z" fill="white"/>
<path opacity="0.5" fill-rule="evenodd" clip-rule="evenodd" d="M150.588 316.677L151.652 310.696L152.505 310.845L151.441 316.826L150.588 316.677Z" fill="white"/>
<path opacity="0.5" fill-rule="evenodd" clip-rule="evenodd" d="M148.085 316.211L149.255 310.25L150.104 310.411L148.935 316.372L148.085 316.211Z" fill="white"/>
<path opacity="0.5" fill-rule="evenodd" clip-rule="evenodd" d="M145.592 315.7L146.866 309.76L147.711 309.938L146.437 315.878L145.592 315.7Z" fill="white"/>
<path opacity="0.5" fill-rule="evenodd" clip-rule="evenodd" d="M143.107 315.147L144.486 309.229L145.328 309.421L143.949 315.339L143.107 315.147Z" fill="white"/>
<path opacity="0.5" fill-rule="evenodd" clip-rule="evenodd" d="M140.631 314.552L142.115 308.658L142.954 308.864L141.471 314.756L140.631 314.552Z" fill="white"/>
<path opacity="0.5" fill-rule="evenodd" clip-rule="evenodd" d="M138.167 313.911L139.754 308.045L140.591 308.266L139.003 314.132L138.167 313.911Z" fill="white"/>
<path opacity="0.5" fill-rule="evenodd" clip-rule="evenodd" d="M135.716 313.23L137.406 307.392L138.237 307.628L136.548 313.466L135.716 313.23Z" fill="white"/>
<path opacity="0.5" fill-rule="evenodd" clip-rule="evenodd" d="M133.276 312.507L135.069 306.699L135.895 306.947L134.102 312.756L133.276 312.507Z" fill="white"/>
<path opacity="0.5" fill-rule="evenodd" clip-rule="evenodd" d="M130.85 311.739L132.744 305.964L133.566 306.229L131.671 312.005L130.85 311.739Z" fill="white"/>
<path opacity="0.5" fill-rule="evenodd" clip-rule="evenodd" d="M128.436 310.933L130.431 305.19L131.251 305.469L129.255 311.212L128.436 310.933Z" fill="white"/>
<path opacity="0.5" fill-rule="evenodd" clip-rule="evenodd" d="M126.038 310.083L128.135 304.377L128.947 304.669L126.851 310.376L126.038 310.083Z" fill="white"/>
<path opacity="0.5" fill-rule="evenodd" clip-rule="evenodd" d="M123.656 309.194L125.853 303.524L126.658 303.829L124.461 309.498L123.656 309.194Z" fill="white"/>
<path opacity="0.5" fill-rule="evenodd" clip-rule="evenodd" d="M121.288 308.263L123.585 302.631L124.387 302.95L122.09 308.581L121.288 308.263Z" fill="white"/>
<path opacity="0.5" fill-rule="evenodd" clip-rule="evenodd" d="M118.938 307.289L121.334 301.699L122.129 302.033L119.734 307.623L118.938 307.289Z" fill="white"/>
<path opacity="0.5" fill-rule="evenodd" clip-rule="evenodd" d="M116.606 306.275L119.099 300.728L119.889 301.076L117.394 306.624L116.606 306.275Z" fill="white"/>
<path opacity="0.5" fill-rule="evenodd" clip-rule="evenodd" d="M114.29 305.222L116.882 299.719L117.667 300.08L115.076 305.585L114.29 305.222Z" fill="white"/>
<path opacity="0.5" fill-rule="evenodd" clip-rule="evenodd" d="M111.996 304.129L114.682 298.67L115.461 299.047L112.774 304.506L111.996 304.129Z" fill="white"/>
<path opacity="0.5" fill-rule="evenodd" clip-rule="evenodd" d="M109.719 302.998L112.503 297.585L113.274 297.975L110.491 303.386L109.719 302.998Z" fill="white"/>
<path opacity="0.5" fill-rule="evenodd" clip-rule="evenodd" d="M107.464 301.826L110.342 296.463L111.107 296.866L108.228 302.228L107.464 301.826Z" fill="white"/>
<path opacity="0.5" fill-rule="evenodd" clip-rule="evenodd" d="M105.231 300.615L108.203 295.303L108.958 295.719L105.986 301.031L105.231 300.615Z" fill="white"/>
<path opacity="0.5" fill-rule="evenodd" clip-rule="evenodd" d="M103.018 299.366L106.082 294.106L106.831 294.535L103.765 299.795L103.018 299.366Z" fill="white"/>
<path opacity="0.5" fill-rule="evenodd" clip-rule="evenodd" d="M100.827 298.081L103.984 292.874L104.724 293.314L101.567 298.519L100.827 298.081Z" fill="white"/>
<path opacity="0.5" fill-rule="evenodd" clip-rule="evenodd" d="M98.6581 296.755L101.906 291.605L102.641 292.057L99.3931 297.207L98.6581 296.755Z" fill="white"/>
<path opacity="0.5" fill-rule="evenodd" clip-rule="evenodd" d="M96.5146 295.393L99.8536 290.3L100.579 290.766L97.2398 295.859L96.5146 295.393Z" fill="white"/>
<path opacity="0.5" fill-rule="evenodd" clip-rule="evenodd" d="M94.395 293.994L97.8222 288.959L98.5404 289.439L95.1118 294.473L94.395 293.994Z" fill="white"/>
<path opacity="0.5" fill-rule="evenodd" clip-rule="evenodd" d="M92.3007 292.559L95.8175 287.585L96.5245 288.074L93.0091 293.049L92.3007 292.559Z" fill="white"/>
<path opacity="0.5" fill-rule="evenodd" clip-rule="evenodd" d="M90.2314 291.088L93.8336 286.175L94.535 286.678L90.9314 291.591L90.2314 291.088Z" fill="white"/>
<path opacity="0.5" fill-rule="evenodd" clip-rule="evenodd" d="M88.1888 289.58L91.8778 284.731L92.568 285.247L88.879 290.097L88.1888 289.58Z" fill="white"/>
<path opacity="0.5" fill-rule="evenodd" clip-rule="evenodd" d="M86.1729 288.04L89.9472 283.254L90.6277 283.78L86.8532 288.565L86.1729 288.04Z" fill="white"/>
<path opacity="0.5" fill-rule="evenodd" clip-rule="evenodd" d="M84.1848 286.462L88.0432 281.742L88.7138 282.282L84.8554 287.003L84.1848 286.462Z" fill="white"/>
<path opacity="0.5" fill-rule="evenodd" clip-rule="evenodd" d="M82.2234 284.852L86.1644 280.2L86.8266 280.75L82.8856 285.403L82.2234 284.852Z" fill="white"/>
<path opacity="0.5" fill-rule="evenodd" clip-rule="evenodd" d="M80.2914 283.209L84.3136 278.625L84.9674 279.185L80.9452 283.769L80.2914 283.209Z" fill="white"/>
<path opacity="0.5" fill-rule="evenodd" clip-rule="evenodd" d="M78.3888 281.53L82.4908 277.017L83.1348 277.591L79.0314 282.104L78.3888 281.53Z" fill="white"/>
<path opacity="0.5" fill-rule="evenodd" clip-rule="evenodd" d="M67.62 270.799L72.177 266.735L72.7552 267.372L68.1996 271.436L67.62 270.799Z" fill="white"/>
<path opacity="0.5" fill-rule="evenodd" clip-rule="evenodd" d="M65.9401 268.905L70.5671 264.921L71.1327 265.567L66.5057 269.552L65.9401 268.905Z" fill="white"/>
<path opacity="0.5" fill-rule="evenodd" clip-rule="evenodd" d="M64.2909 266.981L68.9879 263.077L69.5423 263.735L64.8467 267.638L64.2909 266.981Z" fill="white"/>
<path opacity="0.5" fill-rule="evenodd" clip-rule="evenodd" d="M62.6766 265.031L67.4408 261.209L67.9854 261.873L63.2212 265.695L62.6766 265.031Z" fill="white"/>
<path opacity="0.5" fill-rule="evenodd" clip-rule="evenodd" d="M61.0974 263.052L65.9288 259.312L66.4594 259.986L61.6294 263.725L61.0974 263.052Z" fill="white"/>
<path opacity="0.5" fill-rule="evenodd" clip-rule="evenodd" d="M59.5519 261.044L64.4477 257.389L64.9699 258.073L60.0727 261.729L59.5519 261.044Z" fill="white"/>
<path opacity="0.5" fill-rule="evenodd" clip-rule="evenodd" d="M58.0441 259.011L63.0043 255.441L63.5111 256.136L58.5509 259.706L58.0441 259.011Z" fill="white"/>
<path opacity="0.5" fill-rule="evenodd" clip-rule="evenodd" d="M56.5713 256.953L61.5931 253.47L62.0873 254.171L57.0655 257.655L56.5713 256.953Z" fill="white"/>
<path opacity="0.5" fill-rule="evenodd" clip-rule="evenodd" d="M55.1334 254.87L60.2168 251.474L60.7012 252.185L55.6178 255.58L55.1334 254.87Z" fill="white"/>
<path opacity="0.5" fill-rule="evenodd" clip-rule="evenodd" d="M53.7349 252.763L58.8771 249.455L59.3475 250.172L54.2053 253.48L53.7349 252.763Z" fill="white"/>
<path opacity="0.5" fill-rule="evenodd" clip-rule="evenodd" d="M52.374 250.629L57.5722 247.411L58.03 248.139L52.8304 251.357L52.374 250.629Z" fill="white"/>
<path opacity="0.5" fill-rule="evenodd" clip-rule="evenodd" d="M51.0497 248.475L56.3039 245.347L56.7477 246.081L51.4935 249.208L51.0497 248.475Z" fill="white"/>
<path opacity="0.5" fill-rule="evenodd" clip-rule="evenodd" d="M49.7644 246.298L55.0732 243.261L55.503 244.002L50.1928 247.038L49.7644 246.298Z" fill="white"/>
<path opacity="0.5" fill-rule="evenodd" clip-rule="evenodd" d="M48.5143 244.098L53.8777 241.154L54.2963 241.902L48.9343 244.846L48.5143 244.098Z" fill="white"/>
<path opacity="0.5" fill-rule="evenodd" clip-rule="evenodd" d="M47.306 241.877L52.7198 239.025L53.1258 239.784L47.712 242.634L47.306 241.877Z" fill="white"/>
<path opacity="0.5" fill-rule="evenodd" clip-rule="evenodd" d="M46.1371 239.635L51.5999 236.877L51.9919 237.642L46.5291 240.4L46.1371 239.635Z" fill="white"/>
<path opacity="0.5" fill-rule="evenodd" clip-rule="evenodd" d="M45.0072 237.373L50.5176 234.711L50.897 235.483L45.3866 238.144L45.0072 237.373Z" fill="white"/>
<path opacity="0.5" fill-rule="evenodd" clip-rule="evenodd" d="M43.9181 235.094L49.4733 232.526L49.8401 233.304L44.2835 235.871L43.9181 235.094Z" fill="white"/>
<path opacity="0.5" fill-rule="evenodd" clip-rule="evenodd" d="M42.868 232.796L48.4694 230.325L48.8208 231.106L43.2208 233.576L42.868 232.796Z" fill="white"/>
<path opacity="0.5" fill-rule="evenodd" clip-rule="evenodd" d="M41.86 230.478L47.502 228.105L47.8408 228.893L42.1974 231.266L41.86 230.478Z" fill="white"/>
<path opacity="0.5" fill-rule="evenodd" clip-rule="evenodd" d="M40.8926 228.144L46.578 225.869L46.8986 226.664L41.2146 228.939L40.8926 228.144Z" fill="white"/>
<path opacity="0.5" fill-rule="evenodd" clip-rule="evenodd" d="M39.9673 225.795L45.6905 223.618L45.9985 224.416L40.2739 226.593L39.9673 225.795Z" fill="white"/>
<path opacity="0.5" fill-rule="evenodd" clip-rule="evenodd" d="M39.0811 223.429L44.8421 221.351L45.1375 222.156L39.3765 224.232L39.0811 223.429Z" fill="white"/>
<path opacity="0.5" fill-rule="evenodd" clip-rule="evenodd" d="M38.2383 221.047L44.0343 219.069L44.3157 219.881L38.5197 221.858L38.2383 221.047Z" fill="white"/>
<path opacity="0.5" fill-rule="evenodd" clip-rule="evenodd" d="M37.436 218.652L43.267 216.776L43.5344 217.591L37.7034 219.467L37.436 218.652Z" fill="white"/>
<path opacity="0.5" fill-rule="evenodd" clip-rule="evenodd" d="M36.6786 216.244L42.5418 214.469L42.7924 215.286L36.9306 217.063L36.6786 216.244Z" fill="white"/>
<path opacity="0.5" fill-rule="evenodd" clip-rule="evenodd" d="M35.9633 213.822L41.8559 212.149L42.0925 212.972L36.1999 214.647L35.9633 213.822Z" fill="white"/>
<path opacity="0.5" fill-rule="evenodd" clip-rule="evenodd" d="M35.2885 211.389L41.2105 209.818L41.4345 210.645L35.5125 212.218L35.2885 211.389Z" fill="white"/>
<path opacity="0.5" fill-rule="evenodd" clip-rule="evenodd" d="M34.6598 208.944L40.6084 207.476L40.8142 208.307L34.8656 209.776L34.6598 208.944Z" fill="white"/>
<path opacity="0.5" fill-rule="evenodd" clip-rule="evenodd" d="M34.0718 206.49L40.0456 205.124L40.2388 205.958L34.265 207.325L34.0718 206.49Z" fill="white"/>
<path opacity="0.5" fill-rule="evenodd" clip-rule="evenodd" d="M33.5272 204.025L39.5248 202.762L39.704 203.601L33.7064 204.863L33.5272 204.025Z" fill="white"/>
<path opacity="0.5" d="M39.0572 200.389L33.0386 201.548L33.2006 202.389L39.2192 201.23L39.0572 200.389Z" fill="white"/>
<path opacity="0.5" fill-rule="evenodd" clip-rule="evenodd" d="M32.571 199.069L38.6078 198.015L38.7576 198.859L32.7194 199.913L32.571 199.069Z" fill="white"/>
<path opacity="0.5" fill-rule="evenodd" clip-rule="evenodd" d="M32.1566 196.58L38.2116 195.63L38.3474 196.475L32.2924 197.425L32.1566 196.58Z" fill="white"/>
<path opacity="0.5" d="M37.8695 193.234L31.799 194.08L31.9172 194.929L37.9877 194.083L37.8695 193.234Z" fill="white"/>
<path opacity="0.5" fill-rule="evenodd" clip-rule="evenodd" d="M31.4636 191.58L37.548 190.84L37.653 191.691L31.5686 192.431L31.4636 191.58Z" fill="white"/>
<path opacity="0.5" d="M37.2754 188.44L31.1777 189.074L31.2663 189.925L37.3639 189.291L37.2754 188.44Z" fill="white"/>
<path opacity="0.5" d="M37.044 186.033L30.9363 186.562L31.0103 187.417L37.1181 186.888L37.044 186.033Z" fill="white"/>
<path opacity="0.5" fill-rule="evenodd" clip-rule="evenodd" d="M30.7552 184.045L36.8704 183.621L36.9278 184.477L30.8126 184.901L30.7552 184.045Z" fill="white"/>
<path opacity="0.5" d="M36.715 181.211L30.5927 181.529L30.637 182.383L36.7593 182.066L36.715 181.211Z" fill="white"/>
<path opacity="0.5" d="M30.6493 166.392L30.605 167.246L36.7274 167.564L36.7717 166.709L30.6493 166.392Z" fill="white"/>
<path opacity="0.5" fill-rule="evenodd" clip-rule="evenodd" d="M30.8126 163.877L36.9278 164.301L36.8704 165.155L30.7552 164.732L30.8126 163.877Z" fill="white"/>
<path opacity="0.5" d="M31.0208 161.357L30.9468 162.212L37.0545 162.741L37.1286 161.886L31.0208 161.357Z" fill="white"/>
<path opacity="0.5" d="M31.2703 158.848L31.1818 159.699L37.2795 160.333L37.368 159.482L31.2703 158.848Z" fill="white"/>
<path opacity="0.5" fill-rule="evenodd" clip-rule="evenodd" d="M31.5686 156.345L37.653 157.086L37.548 157.937L31.4636 157.198L31.5686 156.345Z" fill="white"/>
<path opacity="0.5" d="M31.9076 153.855L31.7894 154.703L37.86 155.549L37.9782 154.7L31.9076 153.855Z" fill="white"/>
<path opacity="0.5" fill-rule="evenodd" clip-rule="evenodd" d="M32.2924 151.353L38.3474 152.302L38.2116 153.146L32.1566 152.197L32.2924 151.353Z" fill="white"/>
<path opacity="0.5" fill-rule="evenodd" clip-rule="evenodd" d="M32.7194 148.863L38.7576 149.919L38.6078 150.763L32.571 149.709L32.7194 148.863Z" fill="white"/>
<path opacity="0.5" d="M33.1906 146.381L33.0286 147.223L39.0472 148.382L39.2092 147.54L33.1906 146.381Z" fill="white"/>
<path opacity="0.5" fill-rule="evenodd" clip-rule="evenodd" d="M33.7064 143.914L39.704 145.177L39.5248 146.014L33.5272 144.752L33.7064 143.914Z" fill="white"/>
<path opacity="0.5" fill-rule="evenodd" clip-rule="evenodd" d="M34.265 141.452L40.2388 142.818L40.0456 143.654L34.0718 142.288L34.265 141.452Z" fill="white"/>
<path opacity="0.5" fill-rule="evenodd" clip-rule="evenodd" d="M34.8656 139L40.8142 140.47L40.6084 141.302L34.6598 139.832L34.8656 139Z" fill="white"/>
<path opacity="0.5" fill-rule="evenodd" clip-rule="evenodd" d="M35.5125 136.56L41.4345 138.132L41.2105 138.96L35.2885 137.388L35.5125 136.56Z" fill="white"/>
<path opacity="0.5" fill-rule="evenodd" clip-rule="evenodd" d="M36.1999 134.13L42.0925 135.804L41.8559 136.629L35.9633 134.954L36.1999 134.13Z" fill="white"/>
<path opacity="0.5" fill-rule="evenodd" clip-rule="evenodd" d="M36.9306 131.715L42.7924 133.49L42.5418 134.308L36.6786 132.532L36.9306 131.715Z" fill="white"/>
<path opacity="0.5" fill-rule="evenodd" clip-rule="evenodd" d="M37.7034 129.31L43.5344 131.187L43.267 132.002L37.436 130.124L37.7034 129.31Z" fill="white"/>
<path opacity="0.5" fill-rule="evenodd" clip-rule="evenodd" d="M38.5197 126.92L44.3157 128.897L44.0343 129.707L38.2383 127.73L38.5197 126.92Z" fill="white"/>
<path opacity="0.5" fill-rule="evenodd" clip-rule="evenodd" d="M39.3765 124.544L45.1375 126.622L44.8421 127.427L39.0811 125.349L39.3765 124.544Z" fill="white"/>
<path opacity="0.5" fill-rule="evenodd" clip-rule="evenodd" d="M40.2739 122.185L45.9985 124.361L45.6905 125.159L39.9673 122.983L40.2739 122.185Z" fill="white"/>
<path opacity="0.5" fill-rule="evenodd" clip-rule="evenodd" d="M41.2146 119.839L46.8986 122.114L46.578 122.907L40.8926 120.632L41.2146 119.839Z" fill="white"/>
<path opacity="0.5" fill-rule="evenodd" clip-rule="evenodd" d="M42.1974 117.51L47.8408 119.883L47.502 120.672L41.86 118.299L42.1974 117.51Z" fill="white"/>
<path opacity="0.5" fill-rule="evenodd" clip-rule="evenodd" d="M43.2208 115.2L48.8208 117.671L48.4694 118.451L42.868 115.982L43.2208 115.2Z" fill="white"/>
<path opacity="0.5" fill-rule="evenodd" clip-rule="evenodd" d="M44.2835 112.906L49.8401 115.473L49.4733 116.25L43.9181 113.684L44.2835 112.906Z" fill="white"/>
<path opacity="0.5" fill-rule="evenodd" clip-rule="evenodd" d="M45.3866 110.632L50.897 113.295L50.5176 114.066L45.0072 111.404L45.3866 110.632Z" fill="white"/>
<path opacity="0.5" fill-rule="evenodd" clip-rule="evenodd" d="M46.5291 108.378L51.9919 111.135L51.5999 111.899L46.1371 109.143L46.5291 108.378Z" fill="white"/>
<path opacity="0.5" fill-rule="evenodd" clip-rule="evenodd" d="M47.712 106.144L53.1258 108.994L52.7198 109.752L47.306 106.901L47.712 106.144Z" fill="white"/>
<path opacity="0.5" fill-rule="evenodd" clip-rule="evenodd" d="M48.9343 103.93L54.2963 106.876L53.8777 107.622L48.5143 104.678L48.9343 103.93Z" fill="white"/>
<path opacity="0.5" fill-rule="evenodd" clip-rule="evenodd" d="M50.1928 101.738L55.503 104.775L55.0732 105.515L49.7644 102.48L50.1928 101.738Z" fill="white"/>
<path opacity="0.5" fill-rule="evenodd" clip-rule="evenodd" d="M51.4935 99.568L56.7477 102.696L56.3039 103.431L51.0497 100.302L51.4935 99.568Z" fill="white"/>
<path opacity="0.5" fill-rule="evenodd" clip-rule="evenodd" d="M52.8304 97.4204L58.03 100.639L57.5722 101.366L52.374 98.147L52.8304 97.4204Z" fill="white"/>
<path opacity="0.5" fill-rule="evenodd" clip-rule="evenodd" d="M54.2053 95.298L59.3475 98.6048L58.8771 99.323L53.7349 96.0148L54.2053 95.298Z" fill="white"/>
<path opacity="0.5" fill-rule="evenodd" clip-rule="evenodd" d="M55.6178 93.1966L60.7012 96.593L60.2168 97.3028L55.1334 93.9078L55.6178 93.1966Z" fill="white"/>
<path opacity="0.5" fill-rule="evenodd" clip-rule="evenodd" d="M57.0655 91.1218L62.0873 94.6064L61.5931 95.3064L56.5713 91.8232L57.0655 91.1218Z" fill="white"/>
<path opacity="0.5" fill-rule="evenodd" clip-rule="evenodd" d="M58.5509 89.0722L63.5111 92.6422L63.0043 93.3352L58.0441 89.7652L58.5509 89.0722Z" fill="white"/>
<path opacity="0.5" fill-rule="evenodd" clip-rule="evenodd" d="M60.0727 87.0492L64.9699 90.7032L64.4477 91.3878L59.5519 87.7324L60.0727 87.0492Z" fill="white"/>
<path opacity="0.5" fill-rule="evenodd" clip-rule="evenodd" d="M61.6294 85.0528L66.4594 88.7908L65.9288 89.4656L61.0974 85.7262L61.6294 85.0528Z" fill="white"/>
<path opacity="0.5" fill-rule="evenodd" clip-rule="evenodd" d="M63.2212 83.083L67.9854 86.905L67.4408 87.5686L62.6766 83.7466L63.2212 83.083Z" fill="white"/>
<path opacity="0.5" fill-rule="evenodd" clip-rule="evenodd" d="M66.5057 79.226L71.1327 83.2104L70.5671 83.8572L65.9401 79.8728L66.5057 79.226Z" fill="white"/>
<path opacity="0.5" fill-rule="evenodd" clip-rule="evenodd" d="M68.1996 77.3416L72.7552 81.4044L72.177 82.0414L67.62 77.9786L68.1996 77.3416Z" fill="white"/>
<path opacity="0.5" fill-rule="evenodd" clip-rule="evenodd" d="M79.0314 66.6736L83.1348 71.1872L82.4908 71.7598L78.3888 67.2462L79.0314 66.6736Z" fill="white"/>
<path opacity="0.5" fill-rule="evenodd" clip-rule="evenodd" d="M80.9452 65.009L84.9674 69.5912L84.3136 70.1512L80.2914 65.569L80.9452 65.009Z" fill="white"/>
<path opacity="0.5" fill-rule="evenodd" clip-rule="evenodd" d="M82.8856 63.3752L86.8266 68.0274L86.1644 68.5776L82.2234 63.9254L82.8856 63.3752Z" fill="white"/>
<path opacity="0.5" fill-rule="evenodd" clip-rule="evenodd" d="M84.8554 61.775L88.7138 66.4958L88.0432 67.0348L84.1848 62.3154L84.8554 61.775Z" fill="white"/>
<path opacity="0.5" fill-rule="evenodd" clip-rule="evenodd" d="M86.8532 60.2112L90.6277 64.9964L89.9472 65.5228L86.1729 60.7376L86.8532 60.2112Z" fill="white"/>
<path opacity="0.5" fill-rule="evenodd" clip-rule="evenodd" d="M88.879 58.681L92.568 63.5306L91.8778 64.0472L88.1888 59.1976L88.879 58.681Z" fill="white"/>
<path opacity="0.5" fill-rule="evenodd" clip-rule="evenodd" d="M90.9314 57.1858L94.535 62.0998L93.8336 62.6024L90.2314 57.6884L90.9314 57.1858Z" fill="white"/>
<path opacity="0.5" fill-rule="evenodd" clip-rule="evenodd" d="M93.0091 55.7284L96.5245 60.7026L95.8175 61.1926L92.3007 56.217L93.0091 55.7284Z" fill="white"/>
<path opacity="0.5" fill-rule="evenodd" clip-rule="evenodd" d="M95.1118 54.3032L98.5404 59.339L97.8222 59.8178L94.395 54.7834L95.1118 54.3032Z" fill="white"/>
<path opacity="0.5" fill-rule="evenodd" clip-rule="evenodd" d="M97.2398 52.9186L100.579 58.0118L99.8536 58.478L96.5146 53.3848L97.2398 52.9186Z" fill="white"/>
<path opacity="0.5" fill-rule="evenodd" clip-rule="evenodd" d="M99.3931 51.569L102.641 56.7196L101.906 57.1718L98.6581 52.0212L99.3931 51.569Z" fill="white"/>
<path opacity="0.5" fill-rule="evenodd" clip-rule="evenodd" d="M101.567 50.2572L104.724 55.4638L103.984 55.902L100.827 50.6968L101.567 50.2572Z" fill="white"/>
<path opacity="0.5" fill-rule="evenodd" clip-rule="evenodd" d="M103.765 48.9832L106.831 54.243L106.082 54.6686L103.018 49.4088L103.765 48.9832Z" fill="white"/>
<path opacity="0.5" fill-rule="evenodd" clip-rule="evenodd" d="M105.986 47.747L108.958 53.0586L108.203 53.4744L105.231 48.1614L105.986 47.747Z" fill="white"/>
<path opacity="0.5" fill-rule="evenodd" clip-rule="evenodd" d="M108.228 46.5486L111.107 51.912L110.342 52.3138L107.464 46.9518L108.228 46.5486Z" fill="white"/>
<path opacity="0.5" fill-rule="evenodd" clip-rule="evenodd" d="M110.491 45.3908L113.274 50.8018L112.503 51.191L109.719 45.78L110.491 45.3908Z" fill="white"/>
<path opacity="0.5" fill-rule="evenodd" clip-rule="evenodd" d="M112.774 44.2722L115.461 49.7308L114.682 50.106L111.996 44.6474L112.774 44.2722Z" fill="white"/>
<path opacity="0.5" fill-rule="evenodd" clip-rule="evenodd" d="M115.076 43.1928L117.667 48.6962L116.882 49.0588L114.29 43.554L115.076 43.1928Z" fill="white"/>
<path opacity="0.5" fill-rule="evenodd" clip-rule="evenodd" d="M117.394 42.1526L119.889 47.7008L119.099 48.0494L116.606 42.5012L117.394 42.1526Z" fill="white"/>
<path opacity="0.5" fill-rule="evenodd" clip-rule="evenodd" d="M119.734 41.153L122.129 46.7432L121.334 47.0792L118.938 41.489L119.734 41.153Z" fill="white"/>
<path opacity="0.5" fill-rule="evenodd" clip-rule="evenodd" d="M122.09 40.1968L124.387 45.8276L123.585 46.1454L121.288 40.5146L122.09 40.1968Z" fill="white"/>
<path opacity="0.5" fill-rule="evenodd" clip-rule="evenodd" d="M124.461 39.2784L126.658 44.9484L125.853 45.2536L123.656 39.5836L124.461 39.2784Z" fill="white"/>
<path opacity="0.5" fill-rule="evenodd" clip-rule="evenodd" d="M126.851 38.4006L128.947 44.1084L128.135 44.3996L126.038 38.6932L126.851 38.4006Z" fill="white"/>
<path opacity="0.5" fill-rule="evenodd" clip-rule="evenodd" d="M129.255 37.5662L131.251 43.309L130.431 43.5876L128.436 37.8434L129.255 37.5662Z" fill="white"/>
<path opacity="0.5" fill-rule="evenodd" clip-rule="evenodd" d="M131.671 36.7724L133.566 42.5474L132.744 42.8134L130.85 37.037L131.671 36.7724Z" fill="white"/>
<path opacity="0.5" fill-rule="evenodd" clip-rule="evenodd" d="M134.102 36.022L135.895 41.8292L135.069 42.0784L133.276 36.2698L134.102 36.022Z" fill="white"/>
<path opacity="0.5" fill-rule="evenodd" clip-rule="evenodd" d="M136.548 35.3122L138.237 41.1502L137.406 41.3854L135.716 35.5474L136.548 35.3122Z" fill="white"/>
<path opacity="0.5" fill-rule="evenodd" clip-rule="evenodd" d="M139.003 34.6444L140.591 40.5104L139.754 40.7316L138.167 34.8656L139.003 34.6444Z" fill="white"/>
<path opacity="0.5" fill-rule="evenodd" clip-rule="evenodd" d="M141.471 34.0214L142.954 39.914L142.115 40.1184L140.631 34.2258L141.471 34.0214Z" fill="white"/>
<path opacity="0.5" fill-rule="evenodd" clip-rule="evenodd" d="M143.949 33.439L145.328 39.3568L144.486 39.5472L143.107 33.6294L143.949 33.439Z" fill="white"/>
<path opacity="0.5" fill-rule="evenodd" clip-rule="evenodd" d="M146.437 32.9L147.711 38.8402L146.866 39.018L145.592 33.0778L146.437 32.9Z" fill="white"/>
<path opacity="0.5" fill-rule="evenodd" clip-rule="evenodd" d="M148.935 32.4044L150.104 38.367L149.255 38.528L148.085 32.5668L148.935 32.4044Z" fill="white"/>
<path opacity="0.5" fill-rule="evenodd" clip-rule="evenodd" d="M151.441 31.9522L152.505 37.933L151.652 38.08L150.588 32.0992L151.441 31.9522Z" fill="white"/>
<path opacity="0.5" fill-rule="evenodd" clip-rule="evenodd" d="M153.952 31.542L154.911 37.541L154.059 37.6754L153.1 31.6764L153.952 31.542Z" fill="white"/>
<path opacity="0.5" fill-rule="evenodd" clip-rule="evenodd" d="M156.474 31.1766L157.326 37.191L156.47 37.3086L155.617 31.2956L156.474 31.1766Z" fill="white"/>
<path opacity="0.5" fill-rule="evenodd" clip-rule="evenodd" d="M158.999 30.8546L159.747 36.883L158.888 36.9866L158.14 30.9582L158.999 30.8546Z" fill="white"/>
<path opacity="0.5" fill-rule="evenodd" clip-rule="evenodd" d="M161.531 30.5774L162.17 36.617L161.312 36.7052L160.671 30.6642L161.531 30.5774Z" fill="white"/>
<path opacity="0.5" fill-rule="evenodd" clip-rule="evenodd" d="M164.067 30.3422L164.601 36.393L163.738 36.4672L163.204 30.4164L164.067 30.3422Z" fill="white"/>
<path opacity="0.5" fill-rule="evenodd" clip-rule="evenodd" d="M166.607 30.1532L167.034 36.211L166.17 36.2684L165.743 30.2092L166.607 30.1532Z" fill="white"/>
<path opacity="0.5" fill-rule="evenodd" clip-rule="evenodd" d="M169.148 30.0062L169.469 36.071L168.606 36.1144L168.286 30.0496L169.148 30.0062Z" fill="white"/>
<path opacity="0.5" fill-rule="evenodd" clip-rule="evenodd" d="M184.422 30.0496L184.101 36.1144L183.239 36.071L183.56 30.0062L184.422 30.0496Z" fill="white"/>
<path opacity="0.5" fill-rule="evenodd" clip-rule="evenodd" d="M186.964 30.2092L186.537 36.2684L185.674 36.211L186.102 30.1532L186.964 30.2092Z" fill="white"/>
<path opacity="0.5" fill-rule="evenodd" clip-rule="evenodd" d="M189.504 30.4164L188.969 36.4672L188.107 36.393L188.64 30.3422L189.504 30.4164Z" fill="white"/>
<path opacity="0.5" fill-rule="evenodd" clip-rule="evenodd" d="M192.037 30.6642L191.397 36.7052L190.537 36.617L191.178 30.5774L192.037 30.6642Z" fill="white"/>
<path opacity="0.5" fill-rule="evenodd" clip-rule="evenodd" d="M191.178 318.199L190.537 312.159L191.397 312.073L192.037 318.112L191.178 318.199Z" fill="white"/>
<path opacity="0.5" fill-rule="evenodd" clip-rule="evenodd" d="M188.64 318.434L188.107 312.385L188.969 312.311L189.504 318.361L188.64 318.434Z" fill="white"/>
<path opacity="0.5" fill-rule="evenodd" clip-rule="evenodd" d="M186.102 318.625L185.674 312.565L186.537 312.509L186.964 318.567L186.102 318.625Z" fill="white"/>
<path opacity="0.5" fill-rule="evenodd" clip-rule="evenodd" d="M183.56 318.772L183.239 312.707L184.101 312.663L184.422 318.728L183.56 318.772Z" fill="white"/>
<path opacity="0.5" fill-rule="evenodd" clip-rule="evenodd" d="M72.443 78.4182C73.4048 79.3702 74.6648 79.8476 75.9234 79.8476C77.182 79.8476 78.4392 79.3702 79.401 78.4182C80.3656 77.4662 80.8458 76.2188 80.8458 74.97C80.8458 73.7212 80.3656 72.478 79.4038 71.5246C78.4392 70.5698 77.1806 70.0924 75.9234 70.0924C74.6662 70.0924 73.4048 70.5684 72.443 71.5204L72.3996 71.5666C71.4686 72.513 71.001 73.7408 71.001 74.9686C71.001 76.1964 71.4826 77.4634 72.443 78.4168V78.4182Z" stroke="white" stroke-miterlimit="10"/>
<path opacity="0.5" fill-rule="evenodd" clip-rule="evenodd" d="M30.4206 178.041C31.3824 178.993 32.6424 179.47 33.901 179.47C35.1596 179.47 36.4168 178.993 37.3786 178.041C38.3432 177.089 38.8234 175.841 38.8234 174.593C38.8234 173.344 38.3432 172.101 37.3814 171.147C36.4168 170.192 35.1582 169.715 33.901 169.715C32.6438 169.715 31.3824 170.191 30.4206 171.143L30.3772 171.189C29.4462 172.136 28.9786 173.363 28.9786 174.591C28.9786 175.819 29.4602 177.086 30.4206 178.039V178.041Z" stroke="white" stroke-miterlimit="10"/>
<path opacity="0.5" fill-rule="evenodd" clip-rule="evenodd" d="M179.556 29.9908C178.594 29.0388 177.335 28.5614 176.075 28.5614C174.815 28.5614 173.559 29.0388 172.598 29.9908C171.633 30.9428 171.153 32.1916 171.153 33.439C171.153 34.6864 171.633 35.9324 172.595 36.8844C173.559 37.8392 174.818 38.3152 176.075 38.3152C177.332 38.3152 178.594 37.8392 179.556 36.8872L179.599 36.841C180.531 35.8946 180.998 34.6668 180.998 33.439C180.998 32.2112 180.516 30.9442 179.556 29.9908Z" stroke="white" stroke-miterlimit="10"/>
<path opacity="0.5" fill-rule="evenodd" clip-rule="evenodd" d="M321.912 170.785C320.95 169.833 319.691 169.355 318.431 169.355C317.171 169.355 315.916 169.833 314.954 170.785C313.989 171.737 313.509 172.985 313.509 174.233C313.509 175.48 313.989 176.726 314.951 177.678C315.916 178.633 317.174 179.109 318.431 179.109C319.689 179.109 320.95 178.633 321.912 177.681L321.955 177.635C322.888 176.688 323.354 175.461 323.354 174.233C323.354 173.005 322.872 171.738 321.912 170.785Z" stroke="white" stroke-miterlimit="10"/>
<path opacity="0.5" fill-rule="evenodd" clip-rule="evenodd" d="M172.873 318.584C173.835 319.536 175.095 320.013 176.354 320.013C177.612 320.013 178.87 319.536 179.831 318.584C180.796 317.632 181.276 316.385 181.276 315.136C181.276 313.887 180.796 312.644 179.834 311.69C178.87 310.736 177.611 310.258 176.354 310.258C175.097 310.258 173.835 310.734 172.873 311.686L172.83 311.732C171.899 312.679 171.431 313.907 171.431 315.134C171.431 316.362 171.913 317.629 172.873 318.583V318.584Z" stroke="white" stroke-miterlimit="10"/>
<path opacity="0.5" fill-rule="evenodd" clip-rule="evenodd" d="M64.8467 81.1384L69.5423 85.043L68.9879 85.701L64.2909 81.7964L64.8467 81.1384Z" fill="white"/>
<path d="M177.465 23.6618C177.465 25.2126 177.278 26.3337 176.903 27.0251C176.532 27.7165 175.932 28.0622 175.104 28.0622C174.276 28.0622 173.68 27.7145 173.317 27.0192C172.958 26.3239 172.778 25.2048 172.778 23.6618C172.778 22.1149 172.967 20.9919 173.346 20.2927C173.725 19.5934 174.319 19.2438 175.127 19.2438C175.952 19.2438 176.547 19.5856 176.915 20.2692C177.282 20.9528 177.465 22.0837 177.465 23.6618ZM174.372 23.6618C174.372 24.861 174.422 25.6696 174.524 26.0876C174.629 26.5016 174.827 26.7087 175.116 26.7087C175.311 26.7087 175.461 26.6188 175.567 26.4391C175.676 26.2595 175.754 25.9626 175.801 25.5485C175.848 25.1305 175.872 24.5016 175.872 23.6618C175.872 22.4821 175.817 21.6774 175.708 21.2477C175.598 20.818 175.401 20.6032 175.116 20.6032C174.827 20.6032 174.629 20.818 174.524 21.2477C174.422 21.6735 174.372 22.4782 174.372 23.6618Z" fill="white"/>
<path d="M275.638 59.2492H274.771V61.048H273.271V59.2492H270.476V57.9543L273.065 52.4816H274.771V57.9308H275.638V59.2492ZM273.271 57.9308V56.1261L273.3 55.3293L273.341 54.5675H273.294C273.157 54.9933 273.009 55.3781 272.849 55.7218L271.817 57.9308H273.271ZM275.38 72.7648C275.38 74.3156 275.192 75.4367 274.817 76.1281C274.446 76.8195 273.847 77.1652 273.019 77.1652C272.19 77.1652 271.595 76.8175 271.231 76.1222C270.872 75.4269 270.692 74.3078 270.692 72.7648C270.692 71.2179 270.882 70.0949 271.261 69.3957C271.64 68.6964 272.233 68.3468 273.042 68.3468C273.866 68.3468 274.462 68.6886 274.829 69.3722C275.196 70.0558 275.38 71.1867 275.38 72.7648ZM272.286 72.7648C272.286 73.964 272.337 74.7726 272.438 75.1906C272.544 75.6046 272.741 75.8117 273.03 75.8117C273.226 75.8117 273.376 75.7218 273.481 75.5421C273.591 75.3625 273.669 75.0656 273.716 74.6515C273.763 74.2336 273.786 73.6046 273.786 72.7648C273.786 71.5851 273.731 70.7804 273.622 70.3507C273.513 69.9211 273.315 69.7062 273.03 69.7062C272.741 69.7062 272.544 69.9211 272.438 70.3507C272.337 70.7765 272.286 71.5812 272.286 72.7648Z" fill="white"/>
<path d="M329.263 132.741C329.931 132.741 330.464 132.931 330.863 133.31C331.261 133.689 331.46 134.204 331.46 134.857C331.46 135.259 331.367 135.624 331.179 135.952C330.996 136.277 330.681 136.587 330.236 136.884C330.736 137.24 331.091 137.605 331.302 137.98C331.513 138.351 331.619 138.757 331.619 139.199C331.619 139.898 331.404 140.462 330.974 140.892C330.544 141.322 329.974 141.536 329.263 141.536C328.525 141.536 327.947 141.339 327.529 140.945C327.111 140.546 326.902 139.98 326.902 139.245C326.902 138.753 327.005 138.32 327.212 137.945C327.423 137.566 327.748 137.236 328.185 136.954C327.779 136.63 327.488 136.304 327.312 135.976C327.14 135.644 327.054 135.271 327.054 134.857C327.054 134.216 327.259 133.704 327.669 133.322C328.083 132.935 328.615 132.741 329.263 132.741ZM328.414 139.163C328.414 139.507 328.484 139.781 328.625 139.984C328.769 140.187 328.974 140.288 329.24 140.288C329.529 140.288 329.744 140.187 329.884 139.984C330.029 139.781 330.101 139.507 330.101 139.163C330.101 138.917 330.044 138.685 329.931 138.466C329.818 138.247 329.599 137.995 329.275 137.71L329.193 137.628C328.939 137.816 328.746 138.031 328.613 138.273C328.48 138.511 328.414 138.808 328.414 139.163ZM329.251 133.978C329.029 133.978 328.861 134.06 328.748 134.224C328.634 134.384 328.578 134.615 328.578 134.915C328.578 135.173 328.625 135.398 328.718 135.589C328.812 135.781 328.994 135.984 329.263 136.199C329.521 135.999 329.697 135.8 329.791 135.601C329.888 135.402 329.937 135.173 329.937 134.915C329.937 134.29 329.708 133.978 329.251 133.978ZM331.601 153.136C331.601 154.687 331.414 155.808 331.039 156.499C330.667 157.191 330.068 157.536 329.24 157.536C328.412 157.536 327.816 157.189 327.453 156.493C327.093 155.798 326.914 154.679 326.914 153.136C326.914 151.589 327.103 150.466 327.482 149.767C327.861 149.068 328.455 148.718 329.263 148.718C330.087 148.718 330.683 149.06 331.05 149.743C331.417 150.427 331.601 151.558 331.601 153.136ZM328.507 153.136C328.507 154.335 328.558 155.144 328.66 155.562C328.765 155.976 328.962 156.183 329.251 156.183C329.447 156.183 329.597 156.093 329.703 155.913C329.812 155.734 329.89 155.437 329.937 155.023C329.984 154.605 330.007 153.976 330.007 153.136C330.007 151.956 329.953 151.152 329.843 150.722C329.734 150.292 329.537 150.077 329.251 150.077C328.962 150.077 328.765 150.292 328.66 150.722C328.558 151.148 328.507 151.952 328.507 153.136Z" fill="white"/>
<path d="M330.652 234.864H329.082V229.836C329.082 229.289 329.109 228.66 329.164 227.95C329.136 227.989 329.035 228.108 328.859 228.307C328.687 228.506 328.349 228.864 327.845 229.379L326.955 228.407L329.234 226.297H330.652V234.864ZM331.408 250.864H326.814V249.674L328.338 247.518C328.756 246.924 329.043 246.485 329.199 246.2C329.355 245.91 329.47 245.635 329.545 245.373C329.619 245.108 329.656 244.834 329.656 244.553C329.656 244.225 329.582 243.979 329.433 243.815C329.289 243.651 329.099 243.569 328.865 243.569C328.658 243.569 328.465 243.623 328.285 243.733C328.105 243.842 327.886 244.039 327.629 244.325L326.738 243.387C327.148 242.922 327.529 242.604 327.881 242.432C328.232 242.26 328.613 242.174 329.023 242.174C329.715 242.174 330.254 242.377 330.64 242.784C331.031 243.19 331.226 243.754 331.226 244.477C331.226 244.805 331.191 245.116 331.121 245.409C331.051 245.701 330.943 245.996 330.799 246.293C330.658 246.586 330.48 246.893 330.265 247.213C330.051 247.53 329.496 248.258 328.601 249.399V249.446H331.408V250.864ZM331.502 262.58C331.502 264.131 331.314 265.252 330.939 265.944C330.568 266.635 329.969 266.981 329.14 266.981C328.312 266.981 327.717 266.633 327.353 265.938C326.994 265.242 326.814 264.123 326.814 262.58C326.814 261.034 327.004 259.91 327.383 259.211C327.761 258.512 328.355 258.162 329.164 258.162C329.988 258.162 330.584 258.504 330.951 259.188C331.318 259.871 331.502 261.002 331.502 262.58ZM328.408 262.58C328.408 263.78 328.459 264.588 328.56 265.006C328.666 265.42 328.863 265.627 329.152 265.627C329.347 265.627 329.498 265.537 329.603 265.358C329.713 265.178 329.791 264.881 329.838 264.467C329.885 264.049 329.908 263.42 329.908 262.58C329.908 261.401 329.853 260.596 329.744 260.166C329.635 259.737 329.437 259.522 329.152 259.522C328.863 259.522 328.666 259.737 328.56 260.166C328.459 260.592 328.408 261.397 328.408 262.58Z" fill="white"/>
<path d="M275.288 313.398H273.717V308.371C273.717 307.824 273.745 307.195 273.799 306.484C273.772 306.523 273.671 306.642 273.495 306.841C273.323 307.041 272.985 307.398 272.481 307.914L271.59 306.941L273.87 304.832H275.288V313.398ZM271.45 325.759C271.45 324.013 271.721 322.738 272.264 321.933C272.807 321.125 273.635 320.72 274.749 320.72C274.924 320.72 275.1 320.732 275.276 320.755C275.452 320.775 275.585 320.796 275.674 320.82V322.138C275.405 322.076 275.139 322.044 274.878 322.044C274.432 322.044 274.067 322.142 273.782 322.337C273.497 322.533 273.28 322.826 273.131 323.216C272.983 323.603 272.893 324.148 272.862 324.851H272.926C273.063 324.527 273.251 324.283 273.489 324.119C273.727 323.951 274.003 323.867 274.315 323.867C274.889 323.867 275.337 324.101 275.657 324.57C275.977 325.035 276.137 325.701 276.137 326.568C276.137 327.474 275.926 328.193 275.505 328.724C275.083 329.252 274.51 329.515 273.788 329.515C273.022 329.515 272.44 329.199 272.042 328.566C271.647 327.933 271.45 326.998 271.45 325.759ZM273.799 328.173C274.034 328.173 274.221 328.044 274.362 327.787C274.506 327.529 274.579 327.127 274.579 326.58C274.579 326.138 274.514 325.791 274.385 325.537C274.26 325.279 274.069 325.15 273.811 325.15C273.581 325.15 273.393 325.269 273.249 325.507C273.104 325.746 273.032 326.046 273.032 326.41C273.032 326.98 273.098 327.418 273.231 327.722C273.368 328.023 273.557 328.173 273.799 328.173ZM276.137 341.115C276.137 342.666 275.95 343.787 275.575 344.478C275.204 345.169 274.604 345.515 273.776 345.515C272.948 345.515 272.352 345.168 271.989 344.472C271.63 343.777 271.45 342.658 271.45 341.115C271.45 339.568 271.639 338.445 272.018 337.746C272.397 337.046 272.991 336.697 273.799 336.697C274.624 336.697 275.219 337.039 275.587 337.722C275.954 338.406 276.137 339.537 276.137 341.115ZM273.044 341.115C273.044 342.314 273.094 343.123 273.196 343.541C273.301 343.955 273.499 344.162 273.788 344.162C273.983 344.162 274.133 344.072 274.239 343.892C274.348 343.712 274.426 343.416 274.473 343.002C274.52 342.584 274.544 341.955 274.544 341.115C274.544 339.935 274.489 339.13 274.38 338.701C274.27 338.271 274.073 338.056 273.788 338.056C273.499 338.056 273.301 338.271 273.196 338.701C273.094 339.127 273.044 339.931 273.044 341.115Z" fill="white"/>
<path d="M168.646 351.212H167.075V346.185C167.075 345.638 167.103 345.009 167.157 344.298C167.13 344.337 167.028 344.456 166.853 344.655C166.681 344.855 166.343 345.212 165.839 345.728L164.948 344.755L167.228 342.646H168.646V351.212ZM167.157 358.534C167.825 358.534 168.358 358.724 168.757 359.103C169.155 359.482 169.354 359.997 169.354 360.65C169.354 361.052 169.261 361.417 169.073 361.745C168.89 362.069 168.575 362.38 168.13 362.677C168.63 363.032 168.985 363.398 169.196 363.773C169.407 364.144 169.513 364.55 169.513 364.991C169.513 365.691 169.298 366.255 168.868 366.685C168.438 367.114 167.868 367.329 167.157 367.329C166.419 367.329 165.841 367.132 165.423 366.737C165.005 366.339 164.796 365.773 164.796 365.038C164.796 364.546 164.899 364.112 165.106 363.737C165.317 363.358 165.642 363.028 166.079 362.747C165.673 362.423 165.382 362.097 165.206 361.769C165.034 361.437 164.948 361.064 164.948 360.65C164.948 360.009 165.153 359.497 165.563 359.114C165.978 358.728 166.509 358.534 167.157 358.534ZM166.308 364.956C166.308 365.3 166.378 365.573 166.519 365.776C166.663 365.98 166.868 366.081 167.134 366.081C167.423 366.081 167.638 365.98 167.778 365.776C167.923 365.573 167.995 365.3 167.995 364.956C167.995 364.71 167.938 364.478 167.825 364.259C167.712 364.04 167.493 363.788 167.169 363.503L167.087 363.421C166.833 363.608 166.64 363.823 166.507 364.066C166.374 364.304 166.308 364.601 166.308 364.956ZM167.146 359.771C166.923 359.771 166.755 359.853 166.642 360.017C166.528 360.177 166.472 360.407 166.472 360.708C166.472 360.966 166.519 361.191 166.612 361.382C166.706 361.573 166.888 361.776 167.157 361.991C167.415 361.792 167.591 361.593 167.685 361.394C167.782 361.194 167.831 360.966 167.831 360.708C167.831 360.083 167.603 359.771 167.146 359.771ZM169.495 378.929C169.495 380.48 169.308 381.601 168.933 382.292C168.562 382.983 167.962 383.329 167.134 383.329C166.306 383.329 165.71 382.982 165.347 382.286C164.987 381.591 164.808 380.472 164.808 378.929C164.808 377.382 164.997 376.259 165.376 375.56C165.755 374.86 166.349 374.511 167.157 374.511C167.981 374.511 168.577 374.853 168.944 375.536C169.312 376.22 169.495 377.351 169.495 378.929ZM166.401 378.929C166.401 380.128 166.452 380.937 166.554 381.355C166.659 381.769 166.856 381.976 167.146 381.976C167.341 381.976 167.491 381.886 167.597 381.706C167.706 381.526 167.784 381.23 167.831 380.816C167.878 380.398 167.901 379.769 167.901 378.929C167.901 377.749 167.847 376.944 167.737 376.515C167.628 376.085 167.431 375.87 167.146 375.87C166.856 375.87 166.659 376.085 166.554 376.515C166.452 376.941 166.401 377.745 166.401 378.929Z" fill="white"/>
<path d="M69.6583 314.041H65.0646V312.851L66.588 310.695C67.006 310.101 67.2931 309.662 67.4493 309.377C67.6056 309.087 67.7208 308.812 67.795 308.55C67.8693 308.285 67.9064 308.011 67.9064 307.73C67.9064 307.402 67.8322 307.156 67.6837 306.992C67.5392 306.828 67.3497 306.746 67.1154 306.746C66.9083 306.746 66.715 306.8 66.5353 306.91C66.3556 307.019 66.1368 307.216 65.879 307.502L64.9884 306.564C65.3986 306.099 65.7794 305.781 66.131 305.609C66.4825 305.437 66.8634 305.351 67.2736 305.351C67.965 305.351 68.504 305.554 68.8907 305.961C69.2814 306.367 69.4767 306.931 69.4767 307.654C69.4767 307.982 69.4415 308.293 69.3712 308.586C69.3009 308.879 69.1935 309.173 69.049 309.47C68.9083 309.763 68.7306 310.07 68.5157 310.39C68.3009 310.707 67.7462 311.435 66.8517 312.576V312.623H69.6583V314.041ZM69.7521 325.757C69.7521 327.308 69.5646 328.429 69.1896 329.121C68.8185 329.812 68.2189 330.158 67.3907 330.158C66.5626 330.158 65.9669 329.81 65.6036 329.115C65.2443 328.42 65.0646 327.3 65.0646 325.757C65.0646 324.211 65.254 323.087 65.6329 322.388C66.0118 321.689 66.6056 321.339 67.4142 321.339C68.2384 321.339 68.8341 321.681 69.2013 322.365C69.5685 323.048 69.7521 324.179 69.7521 325.757ZM66.6583 325.757C66.6583 326.957 66.7091 327.765 66.8107 328.183C66.9161 328.597 67.1134 328.804 67.4025 328.804C67.5978 328.804 67.7482 328.714 67.8536 328.535C67.963 328.355 68.0411 328.058 68.088 327.644C68.1349 327.226 68.1583 326.597 68.1583 325.757C68.1583 324.578 68.1036 323.773 67.9943 323.343C67.8849 322.914 67.6876 322.699 67.4025 322.699C67.1134 322.699 66.9161 322.914 66.8107 323.343C66.7091 323.769 66.6583 324.574 66.6583 325.757ZM69.7521 341.757C69.7521 343.308 69.5646 344.429 69.1896 345.121C68.8185 345.812 68.2189 346.158 67.3907 346.158C66.5626 346.158 65.9669 345.81 65.6036 345.115C65.2443 344.42 65.0646 343.3 65.0646 341.757C65.0646 340.211 65.254 339.087 65.6329 338.388C66.0118 337.689 66.6056 337.339 67.4142 337.339C68.2384 337.339 68.8341 337.681 69.2013 338.365C69.5685 339.048 69.7521 340.179 69.7521 341.757ZM66.6583 341.757C66.6583 342.957 66.7091 343.765 66.8107 344.183C66.9161 344.597 67.1134 344.804 67.4025 344.804C67.5978 344.804 67.7482 344.714 67.8536 344.535C67.963 344.355 68.0411 344.058 68.088 343.644C68.1349 343.226 68.1583 342.597 68.1583 341.757C68.1583 340.578 68.1036 339.773 67.9943 339.343C67.8849 338.914 67.6876 338.699 67.4025 338.699C67.1134 338.699 66.9161 338.914 66.8107 339.343C66.7091 339.769 66.6583 340.574 66.6583 341.757Z" fill="white"/>
<path d="M14.0994 235.996H9.50562V234.807L11.0291 232.65C11.447 232.057 11.7341 231.617 11.8904 231.332C12.0466 231.043 12.1619 230.768 12.2361 230.506C12.3103 230.24 12.3474 229.967 12.3474 229.686C12.3474 229.358 12.2732 229.111 12.1248 228.947C11.9802 228.783 11.7908 228.701 11.5564 228.701C11.3494 228.701 11.156 228.756 10.9763 228.865C10.7966 228.975 10.5779 229.172 10.3201 229.457L9.42944 228.52C9.8396 228.055 10.2205 227.736 10.572 227.565C10.9236 227.393 11.3044 227.307 11.7146 227.307C12.406 227.307 12.9451 227.51 13.3318 227.916C13.7224 228.322 13.9177 228.887 13.9177 229.609C13.9177 229.938 13.8826 230.248 13.8123 230.541C13.7419 230.834 13.6345 231.129 13.49 231.426C13.3494 231.719 13.1716 232.025 12.9568 232.346C12.7419 232.662 12.1873 233.391 11.2927 234.531V234.578H14.0994V235.996ZM14.4509 250.197H13.5837V251.996H12.0837V250.197H9.28882V248.902L11.8787 243.43H13.5837V248.879H14.4509V250.197ZM12.0837 248.879V247.074L12.113 246.277L12.1541 245.516H12.1072C11.9705 245.941 11.822 246.326 11.6619 246.67L10.6306 248.879H12.0837ZM14.1931 263.713C14.1931 265.264 14.0056 266.385 13.6306 267.076C13.2595 267.768 12.6599 268.113 11.8318 268.113C11.0037 268.113 10.408 267.766 10.0447 267.07C9.6853 266.375 9.50562 265.256 9.50562 263.713C9.50562 262.166 9.69507 261.043 10.074 260.344C10.4529 259.645 11.0466 259.295 11.8552 259.295C12.6794 259.295 13.2751 259.637 13.6423 260.32C14.0095 261.004 14.1931 262.135 14.1931 263.713ZM11.0994 263.713C11.0994 264.912 11.1501 265.721 11.2517 266.139C11.3572 266.553 11.5544 266.76 11.8435 266.76C12.0388 266.76 12.1892 266.67 12.2947 266.49C12.4041 266.311 12.4822 266.014 12.5291 265.6C12.5759 265.182 12.5994 264.553 12.5994 263.713C12.5994 262.533 12.5447 261.729 12.4353 261.299C12.3259 260.869 12.1287 260.654 11.8435 260.654C11.5544 260.654 11.3572 260.869 11.2517 261.299C11.1501 261.725 11.0994 262.529 11.0994 263.713Z" fill="white"/>
<path d="M14.1987 140.982H9.60498V139.793L11.1284 137.637C11.5464 137.043 11.8335 136.603 11.9897 136.318C12.146 136.029 12.2612 135.754 12.3354 135.492C12.4097 135.227 12.4468 134.953 12.4468 134.672C12.4468 134.344 12.3726 134.098 12.2241 133.934C12.0796 133.77 11.8901 133.687 11.6558 133.687C11.4487 133.687 11.2554 133.742 11.0757 133.852C10.896 133.961 10.6772 134.158 10.4194 134.443L9.52881 133.506C9.93896 133.041 10.3198 132.723 10.6714 132.551C11.0229 132.379 11.4038 132.293 11.814 132.293C12.5054 132.293 13.0444 132.496 13.4312 132.902C13.8218 133.309 14.0171 133.873 14.0171 134.596C14.0171 134.924 13.9819 135.234 13.9116 135.527C13.8413 135.82 13.7339 136.115 13.5894 136.412C13.4487 136.705 13.271 137.012 13.0562 137.332C12.8413 137.648 12.2866 138.377 11.3921 139.518V139.564H14.1987V140.982ZM11.9546 148.305C12.6226 148.305 13.1558 148.494 13.5542 148.873C13.9526 149.252 14.1519 149.768 14.1519 150.42C14.1519 150.822 14.0581 151.187 13.8706 151.516C13.687 151.84 13.3726 152.15 12.9272 152.447C13.4272 152.803 13.7827 153.168 13.9937 153.543C14.2046 153.914 14.3101 154.32 14.3101 154.762C14.3101 155.461 14.0952 156.025 13.6655 156.455C13.2358 156.885 12.6655 157.1 11.9546 157.1C11.2163 157.1 10.6382 156.902 10.2202 156.508C9.80225 156.109 9.59326 155.543 9.59326 154.809C9.59326 154.316 9.69678 153.883 9.90381 153.508C10.1147 153.129 10.439 152.799 10.8765 152.518C10.4702 152.193 10.1792 151.867 10.0034 151.539C9.83154 151.207 9.74561 150.834 9.74561 150.42C9.74561 149.779 9.95068 149.268 10.3608 148.885C10.7749 148.498 11.3062 148.305 11.9546 148.305ZM11.105 154.727C11.105 155.07 11.1753 155.344 11.3159 155.547C11.4604 155.75 11.6655 155.852 11.9312 155.852C12.2202 155.852 12.4351 155.75 12.5757 155.547C12.7202 155.344 12.7925 155.07 12.7925 154.727C12.7925 154.48 12.7358 154.248 12.6226 154.029C12.5093 153.811 12.2905 153.559 11.9663 153.273L11.8843 153.191C11.6304 153.379 11.437 153.594 11.3042 153.836C11.1714 154.074 11.105 154.371 11.105 154.727ZM11.9429 149.541C11.7202 149.541 11.5522 149.623 11.439 149.787C11.3257 149.947 11.269 150.178 11.269 150.478C11.269 150.736 11.3159 150.961 11.4097 151.152C11.5034 151.344 11.6851 151.547 11.9546 151.762C12.2124 151.562 12.3882 151.363 12.4819 151.164C12.5796 150.965 12.6284 150.736 12.6284 150.478C12.6284 149.853 12.3999 149.541 11.9429 149.541ZM14.2925 168.699C14.2925 170.25 14.105 171.371 13.73 172.062C13.3589 172.754 12.7593 173.1 11.9312 173.1C11.103 173.1 10.5073 172.752 10.144 172.057C9.78467 171.361 9.60498 170.242 9.60498 168.699C9.60498 167.152 9.79443 166.029 10.1733 165.33C10.5522 164.631 11.146 164.281 11.9546 164.281C12.7788 164.281 13.3745 164.623 13.7417 165.307C14.1089 165.99 14.2925 167.121 14.2925 168.699ZM11.1987 168.699C11.1987 169.898 11.2495 170.707 11.3511 171.125C11.4565 171.539 11.6538 171.746 11.9429 171.746C12.1382 171.746 12.2886 171.656 12.394 171.477C12.5034 171.297 12.5815 171 12.6284 170.586C12.6753 170.168 12.6987 169.539 12.6987 168.699C12.6987 167.52 12.644 166.715 12.5347 166.285C12.4253 165.855 12.228 165.641 11.9429 165.641C11.6538 165.641 11.4565 165.855 11.3511 166.285C11.2495 166.711 11.1987 167.516 11.1987 168.699Z" fill="white"/>
<path d="M74.3702 53.9263C74.3702 54.4654 74.2374 54.9185 73.9718 55.2857C73.7062 55.649 73.3312 55.9009 72.8468 56.0416V56.0884C73.3859 56.1744 73.8019 56.3853 74.0948 56.7213C74.3917 57.0572 74.5402 57.5142 74.5402 58.0923C74.5402 58.8814 74.2941 59.5103 73.8019 59.9791C73.3136 60.4478 72.6437 60.6822 71.7921 60.6822C71.0343 60.6822 70.3976 60.5474 69.882 60.2779V58.8482C70.1398 59.0045 70.4191 59.1275 70.7198 59.2173C71.0206 59.3072 71.3097 59.3521 71.587 59.3521C72.0402 59.3521 72.382 59.2486 72.6124 59.0416C72.8429 58.8306 72.9581 58.4986 72.9581 58.0455C72.9581 57.19 72.4327 56.7623 71.382 56.7623H70.8956V55.5728H71.3585C71.8234 55.5728 72.1788 55.4634 72.4249 55.2447C72.6749 55.0259 72.7999 54.6998 72.7999 54.2662C72.7999 53.9263 72.7198 53.6705 72.5597 53.4986C72.4034 53.3228 72.1808 53.2349 71.8917 53.2349C71.4503 53.2349 71.0206 53.4224 70.6027 53.7974L69.882 52.7427C70.4601 52.1646 71.1886 51.8755 72.0675 51.8755C72.7902 51.8755 73.3546 52.0591 73.7609 52.4263C74.1671 52.7896 74.3702 53.2896 74.3702 53.9263ZM74.5402 76.565H69.9464V75.3755L71.4698 73.2193C71.8878 72.6255 72.1749 72.1861 72.3312 71.9009C72.4874 71.6119 72.6027 71.3365 72.6769 71.0748C72.7511 70.8091 72.7882 70.5357 72.7882 70.2545C72.7882 69.9263 72.714 69.6802 72.5656 69.5162C72.421 69.3521 72.2316 69.2701 71.9972 69.2701C71.7902 69.2701 71.5968 69.3248 71.4171 69.4341C71.2374 69.5435 71.0187 69.7408 70.7609 70.0259L69.8702 69.0884C70.2804 68.6236 70.6613 68.3052 71.0128 68.1334C71.3644 67.9615 71.7452 67.8755 72.1554 67.8755C72.8468 67.8755 73.3859 68.0787 73.7726 68.4849C74.1632 68.8912 74.3585 69.4556 74.3585 70.1783C74.3585 70.5064 74.3234 70.817 74.2531 71.1099C74.1827 71.4029 74.0753 71.6978 73.9308 71.9947C73.7902 72.2877 73.6124 72.5943 73.3976 72.9146C73.1827 73.231 72.6281 73.9595 71.7335 75.1002V75.147H74.5402V76.565ZM74.6339 88.2818C74.6339 89.8326 74.4464 90.9537 74.0714 91.6451C73.7003 92.3365 73.1007 92.6822 72.2726 92.6822C71.4445 92.6822 70.8488 92.3345 70.4855 91.6392C70.1261 90.9439 69.9464 89.8248 69.9464 88.2818C69.9464 86.7349 70.1359 85.6119 70.5148 84.9127C70.8937 84.2134 71.4874 83.8638 72.296 83.8638C73.1202 83.8638 73.7159 84.2056 74.0831 84.8892C74.4503 85.5728 74.6339 86.7037 74.6339 88.2818ZM71.5402 88.2818C71.5402 89.481 71.5909 90.2896 71.6925 90.7076C71.798 91.1216 71.9952 91.3287 72.2843 91.3287C72.4796 91.3287 72.63 91.2388 72.7355 91.0591C72.8448 90.8795 72.923 90.5826 72.9698 90.1685C73.0167 89.7505 73.0402 89.1216 73.0402 88.2818C73.0402 87.1021 72.9855 86.2974 72.8761 85.8677C72.7667 85.438 72.5695 85.2232 72.2843 85.2232C71.9952 85.2232 71.798 85.438 71.6925 85.8677C71.5909 86.2935 71.5402 87.0982 71.5402 88.2818Z" fill="white"/>
<path d="M45.6134 264.449C27.531 239.054 16.9092 208.072 16.9092 174.633C16.9092 141.194 27.8698 109.232 46.4772 83.6164" stroke="white" stroke-width="22" stroke-miterlimit="10" stroke-linecap="round"/>
<path d="M264.925 302.271C239.312 320.135 208.081 330.625 174.376 330.625C140.671 330.625 107.148 319.35 81.0264 300.272" stroke="white" stroke-width="7" stroke-miterlimit="10"/>
<path d="M303.278 84.0392C321.937 109.676 332.931 141.152 332.931 175.172C332.931 209.192 321.962 240.601 303.338 266.223" stroke="white" stroke-width="22" stroke-miterlimit="10" stroke-linecap="round"/>
<path d="M83.5267 47.2052C109.196 29.2138 140.539 18.641 174.376 18.641C208.212 18.641 241.756 29.9698 267.91 49.1288" stroke="white" stroke-width="7" stroke-miterlimit="10" stroke-linecap="round"/>
<path fill-rule="evenodd" clip-rule="evenodd" d="M261.201 45.2578L269.863 40.6322L268.433 50.2768L261.201 45.2578Z" fill="white"/>
<path fill-rule="evenodd" clip-rule="evenodd" d="M307.325 261.734L311.321 268.912L303.122 267.796C302.41 267.7 302.05 266.893 302.457 266.307L305.683 261.653C306.09 261.066 306.978 261.11 307.325 261.733V261.734Z" fill="white"/>
<path fill-rule="evenodd" clip-rule="evenodd" d="M87.9634 304.315L79.303 308.945L80.7296 299.299L87.9634 304.315Z" fill="white"/>
<path fill-rule="evenodd" clip-rule="evenodd" d="M41.79 88.0068L37.7748 80.8402L45.976 81.9322C46.6886 82.0274 47.0498 82.8324 46.6452 83.4204L43.4336 88.0824C43.029 88.6704 42.14 88.6298 41.7914 88.0068H41.79Z" fill="white"/>
<path opacity="0.5" fill-rule="evenodd" clip-rule="evenodd" d="M183.009 306.821C215.477 305.425 244.94 292.557 267.371 272.205L266.732 271.775C244.486 291.906 215.306 304.644 183.155 306.068L183.009 306.82V306.821ZM275.708 263.945C296.253 241.725 309.243 212.538 310.653 180.375L309.894 180.519C308.455 212.369 295.596 241.275 275.274 263.312L275.708 263.945ZM310.653 168.692C309.243 136.528 296.254 107.339 275.71 85.12L275.276 85.7528C295.599 107.792 308.456 136.697 309.894 168.549L310.653 168.693V168.692ZM267.372 76.8614C244.941 56.5082 215.478 43.6394 183.011 42.2422L183.156 42.994C215.307 44.4192 244.486 57.1592 266.732 77.2912L267.371 76.8614H267.372ZM171.219 42.2422C138.75 43.6394 109.287 56.5068 86.8561 76.8586L87.4945 77.287C109.742 57.1564 138.921 44.4178 171.073 42.9926L171.219 42.2408V42.2422ZM78.5205 85.1186C57.9755 107.338 44.9849 136.525 43.5751 168.689L44.3339 168.545C45.7717 136.695 58.6321 107.789 78.9545 85.7514L78.5205 85.1186ZM43.5751 180.372C44.9849 212.535 57.9755 241.723 78.5205 263.942L78.9531 263.309C58.6307 241.272 45.7717 212.366 44.3339 180.516L43.5751 180.372ZM171.072 306.068C138.921 304.643 109.742 291.903 87.4959 271.772L86.8575 272.202C109.287 292.554 138.75 305.424 171.217 306.82L171.072 306.068ZM182.276 310.625L182.42 309.876C216.175 308.601 246.793 295.2 269.968 273.949L270.606 274.379C247.25 295.851 216.346 309.38 182.276 310.626V310.625ZM277.906 267.148L277.473 266.515C298.925 243.558 312.449 213.226 313.739 179.787L314.497 179.642C313.24 213.395 299.583 244.009 277.907 267.147L277.906 267.148ZM314.496 169.418L313.74 169.274C312.452 135.835 298.925 105.504 277.473 82.5454L277.906 81.9126C299.582 105.05 313.239 135.666 314.496 169.417V169.418ZM270.609 74.6844L269.97 75.1142C246.796 53.8622 216.177 40.4642 182.423 39.1874L182.277 38.4356C216.348 39.6816 247.253 53.2098 270.609 74.683V74.6844ZM171.955 38.437L171.809 39.186C138.054 40.4614 107.436 53.8622 84.2619 75.1128L83.6235 74.6844C106.98 53.2126 137.883 39.683 171.955 38.437ZM76.3253 81.9126L76.7593 82.5454C55.3071 105.503 41.7817 135.835 40.4937 169.273L39.7349 169.417C40.9921 135.666 54.6491 105.05 76.3253 81.9126ZM39.7349 179.644L40.4937 179.788C41.7817 213.227 55.3071 243.559 76.7579 266.517L76.3253 267.149C54.6491 244.012 40.9935 213.396 39.7363 179.645L39.7349 179.644ZM171.808 309.875L171.954 310.626C137.883 309.38 106.98 295.852 83.6221 274.379L84.2605 273.949C107.435 295.2 138.053 308.598 171.808 309.875Z" fill="white"/>
</g>
<defs>
<clipPath id="clip0_10_496">
<rect width="350" height="350" fill="white"/>
</clipPath>
</defs>
</svg>
