<svg width="660" height="299" viewBox="0 0 660 299" fill="none" xmlns="http://www.w3.org/2000/svg">
<path d="M180.621 188.835C169.895 188.835 159.846 181.95 150.715 170.743L152.938 154.921L153.035 154.335C155.015 137.489 161.296 109.213 180.621 109.213C195.114 109.213 206.902 127.087 206.902 149.06C206.853 170.962 195.066 188.835 180.621 188.835ZM180.621 68.8541C155.932 68.8541 136.802 93.1727 129.024 133.166C117.139 106.137 108.153 73.6889 102.887 46.3665H76.3158V151.185C76.3158 171.841 65.2038 188.687 51.5797 188.687C37.9556 188.687 26.8449 171.841 26.8449 151.185V46.3665H0.270811V151.185C0.17414 194.11 23.2191 229.341 51.5294 229.341C79.841 229.341 102.886 194.11 102.886 151.185V133.606C108.055 149.94 114.383 166.42 122.065 181.071L105.784 297.095H132.984L144.771 212.933C155.11 222.968 166.995 229.269 180.619 229.269C209.751 229.269 233.472 193.084 233.472 148.914C233.472 104.818 209.752 68.8541 180.621 68.8541Z" fill="#6FDA44"/>
<path d="M314.588 73.3957L331.739 178.214L350.629 73.3957H373.142L344.107 224.873H321.593L303.767 119.395L285.988 224.799H263.475L234.438 73.3234H256.952L275.841 178.141L292.992 73.3234H314.587V73.3977L314.588 73.3957ZM427.01 68.854C397.782 68.854 374.109 104.818 374.109 149.06C374.109 193.377 397.829 229.269 427.01 229.269C456.239 229.269 479.959 193.377 479.959 149.06C479.959 104.746 456.239 68.854 427.01 68.854ZM427.01 196.306C409.811 196.306 395.897 175.21 395.897 149.135C395.897 123.057 409.859 101.963 427.01 101.963C444.209 101.963 458.122 123.057 458.122 149.135C458.122 175.138 444.209 196.306 427.01 196.306ZM544.262 107.31C529.141 107.31 516.918 125.914 516.918 148.767V224.799H494.259V73.3957H516.918V96.6884C516.918 96.6884 526.58 73.3215 546.436 73.3215H553.393V107.31H544.262ZM620.306 143.201C636.392 129.43 647.312 103.28 647.312 73.3215H624.652C624.652 98.5918 611.126 119.102 594.458 119.102H591.414V0.293152H568.757V224.797H591.414V153.455H594.121C596.343 153.455 599.242 155.654 600.546 158.363L632.721 224.799H659.872L620.306 143.201Z" fill="white"/>
</svg>
